<svg width="157.000000" height="55.000000" viewBox="0 0 157 55" fill="none" xmlns="http://www.w3.org/2000/svg" xmlns:xlink="http://www.w3.org/1999/xlink">
	<defs/>
	<rect x="2.000000" y="2.000000" rx="10.000000" width="153.000000" height="51.000000" stroke="#FFFFFF" stroke-opacity="1.000000" stroke-width="4.000000"/>
	<path id="MovieR" d="M88.0121 18.4631Q88.2185 18.5811 88.4923 18.5811L92.8077 18.5811Q92.9748 18.5811 93.1231 18.5281Q93.2944 18.4669 93.4405 18.335Q93.5425 18.2395 93.6063 18.1232Q93.713 17.9287 93.713 17.6758L93.713 14.4414Q93.713 14.3022 93.6723 14.176Q93.6077 13.9758 93.4405 13.8086Q93.2733 13.6414 93.0731 13.5768Q92.947 13.5361 92.8077 13.5361L88.4923 13.5361Q88.2583 13.5361 88.0735 13.6315Q87.946 13.6973 87.8419 13.8086Q87.7099 13.9547 87.6487 14.126Q87.5958 14.2743 87.5958 14.4414L87.5958 17.6758Q87.5958 17.9704 87.7265 18.1857Q87.7751 18.2658 87.8419 18.335Q87.9203 18.4107 88.0121 18.4631ZM16.1382 39.9557Q16.2712 40 16.4189 40L20.7432 40Q20.9976 40 21.1903 39.8909Q21.297 39.8304 21.3848 39.7363Q21.5286 39.5826 21.5913 39.4008Q21.6396 39.2605 21.6396 39.1035L21.6396 25.6035L25.709 33.127Q25.7361 33.1772 25.766 33.2258Q25.9296 33.4915 26.1748 33.707Q26.4648 33.9531 26.9658 33.9531L28.8379 33.9531Q29.3477 33.9531 29.6289 33.707Q29.8576 33.5061 30.0207 33.2614Q30.0645 33.1957 30.1035 33.127L34.1289 25.6035L34.1289 39.1035Q34.1289 39.2428 34.1696 39.3689Q34.2342 39.5692 34.4014 39.7363Q34.5172 39.8484 34.6553 39.9129Q34.842 40 35.0693 40L39.3496 40Q39.577 40 39.7636 39.9129Q39.9017 39.8484 40.0176 39.7363Q40.1848 39.5692 40.2494 39.3689Q40.29 39.2428 40.29 39.1035L40.29 15.6982Q40.29 15.4562 40.188 15.2701Q40.1233 15.1521 40.0176 15.0566Q39.9106 14.9566 39.7848 14.8958Q39.5899 14.8018 39.3496 14.8018L35.5 14.8018Q34.8884 14.8018 34.6155 15.1058Q34.6139 15.1076 34.6123 15.1094Q34.3486 15.4082 34.2432 15.5928L27.9062 26.9307L21.5693 15.5928Q21.499 15.4082 21.209 15.1094L21.2081 15.1084Q20.918 14.8018 20.3037 14.8018L16.4189 14.8018Q16.2619 14.8018 16.1216 14.8501Q15.9399 14.9128 15.7861 15.0566Q15.6921 15.1444 15.6316 15.2512Q15.5225 15.4438 15.5225 15.6982L15.5225 39.1035Q15.5225 39.2513 15.5668 39.3842Q15.6306 39.5756 15.7861 39.7363Q15.9469 39.8919 16.1382 39.9557ZM120.165 39.8977Q120.357 40 120.603 40L125.252 40Q125.49 40 125.679 39.9051Q125.806 39.8418 125.912 39.7363Q126.079 39.5692 126.143 39.3689Q126.184 39.2428 126.184 39.1035L126.184 31.1055L129.858 31.1055L133.962 39.0244Q134.103 39.3145 134.428 39.6572L134.429 39.6581Q134.754 40 135.439 40L140.22 40Q140.313 40 140.399 39.9768Q140.583 39.9272 140.739 39.7715Q140.915 39.5956 140.96 39.3907Q140.976 39.3192 140.976 39.2441Q140.976 39.0684 140.871 38.8486L135.94 29.9893Q137.147 29.4518 138.069 28.6047Q138.685 28.0389 139.174 27.335Q139.241 27.2387 139.305 27.14Q140.405 25.4289 140.405 23.0107Q140.405 20.3257 139.161 18.4781Q138.585 17.6224 137.742 16.9463Q135.079 14.8018 130.394 14.8018L120.603 14.8018Q120.343 14.8018 120.144 14.9116Q120.04 14.969 119.953 15.0566Q119.882 15.1273 119.832 15.2102Q119.706 15.4163 119.706 15.6982L119.706 39.1035Q119.706 39.2706 119.759 39.4189Q119.821 39.5902 119.953 39.7363Q120.049 39.8358 120.165 39.8977ZM130.324 25.999L126.184 25.999L126.184 19.8027L130.324 19.8027Q132.09 19.8027 132.899 20.6729Q133.064 20.8486 133.195 21.0466Q133.707 21.8193 133.707 22.9316Q133.707 24.0197 133.202 24.7658Q133.055 24.9839 132.864 25.1729Q132.02 25.999 130.324 25.999ZM48.6879 39.3936Q50.7621 40.3604 53.7855 40.3604Q56.8441 40.3604 58.9096 39.3936Q60.4062 38.6896 61.3949 37.5464Q61.7765 37.1052 62.0824 36.5986Q63.181 34.7793 63.3305 32.2568Q63.3656 31.5361 63.3656 30.6221Q63.3656 29.708 63.3305 29.0225Q63.181 26.4648 62.0297 24.6631Q61.7012 24.1491 61.2976 23.703Q60.2866 22.5855 58.8041 21.8945Q56.7387 20.9189 53.7855 20.9189Q50.8764 20.9189 48.8021 21.8945Q47.3197 22.5855 46.3086 23.703Q45.905 24.1491 45.5766 24.6631Q44.4252 26.4648 44.2846 29.0225Q44.2494 29.708 44.2494 30.6221Q44.2494 31.5361 44.2846 32.2568Q44.4252 34.7793 45.5238 36.5986Q45.8393 37.1211 46.2346 37.5741Q47.2156 38.6982 48.6879 39.3936ZM100.381 38.5472Q102.792 40.3604 106.567 40.3604Q108.764 40.3604 110.416 39.8242Q112.069 39.2793 113.167 38.4355Q114.266 37.5918 114.837 36.7305Q115.417 35.8604 115.452 35.2451Q115.481 35.0099 115.39 34.8384Q115.341 34.7471 115.259 34.6738Q115.188 34.6077 115.105 34.5615Q114.913 34.4541 114.661 34.4541L110.196 34.4541Q109.766 34.4541 109.564 34.5508Q109.37 34.6387 109.045 35.0342Q108.869 35.2451 108.544 35.5527Q108.219 35.8604 107.736 36.0977Q107.252 36.3262 106.531 36.3262Q105.684 36.3262 105.069 35.9484Q104.976 35.8912 104.888 35.8252Q104.784 35.7472 104.688 35.6604Q104.167 35.1901 103.877 34.4629Q103.543 33.5928 103.508 32.5469L103.508 32.292L115.022 32.292Q115.295 32.292 115.502 32.174Q115.594 32.1216 115.672 32.0459Q115.76 31.9583 115.817 31.8541Q115.927 31.6551 115.927 31.3955L115.927 30.5342Q115.927 27.7568 114.881 25.6035Q114.39 24.5878 113.671 23.7718Q112.861 22.851 111.761 22.1846Q109.696 20.9189 106.531 20.9189Q103.754 20.9189 101.68 21.9824Q100.722 22.4756 99.957 23.1786Q99.0723 23.9915 98.4455 25.085Q97.2766 27.1152 97.1711 29.9541L97.1711 31.2197Q97.2676 35.371 99.3819 37.6518Q99.5775 37.8627 99.7902 38.0576Q100.074 38.317 100.381 38.5472ZM72.0733 39.7363Q72.3281 40 72.8643 40L76.6875 40Q77.2588 40 77.5313 39.7363Q77.6612 39.6064 77.7612 39.4565Q77.8708 39.292 77.9444 39.1035L84.7471 22.3955Q84.8174 22.2549 84.8174 22.0703Q84.8174 21.9327 84.7718 21.8125Q84.7096 21.6484 84.5625 21.5166Q84.4176 21.3769 84.2452 21.3194Q84.1249 21.2793 83.9912 21.2793L79.9219 21.2793Q79.5037 21.2793 79.2556 21.4847Q79.2273 21.5081 79.2012 21.5342Q78.9551 21.7803 78.876 22.0352L74.7803 33.0918L70.711 22.0352Q70.6319 21.7803 70.377 21.5342Q70.3533 21.5097 70.3276 21.4875Q70.0861 21.2793 69.6651 21.2793L65.5957 21.2793Q65.3721 21.2793 65.1959 21.3707Q65.0881 21.4266 64.9981 21.5166Q64.8862 21.6284 64.8291 21.7634Q64.7695 21.9042 64.7695 22.0703Q64.7695 22.2549 64.8399 22.3955L71.6426 39.1035Q71.8272 39.4639 72.0733 39.7363ZM88.0893 39.8977Q88.2811 40 88.5274 40L92.7726 40Q93.0189 40 93.2107 39.8977Q93.3268 39.8358 93.4229 39.7363Q93.5668 39.5826 93.6294 39.4008Q93.6778 39.2605 93.6778 39.1035L93.6778 22.1758Q93.6778 21.908 93.561 21.7087Q93.5053 21.6137 93.4229 21.5342Q93.3354 21.4466 93.2311 21.3891Q93.0321 21.2793 92.7726 21.2793L88.5274 21.2793Q88.2679 21.2793 88.0688 21.3891Q87.9646 21.4466 87.877 21.5342Q87.8064 21.6048 87.756 21.6878Q87.631 21.8938 87.631 22.1758L87.631 39.1035Q87.631 39.2706 87.6839 39.4189Q87.7451 39.5902 87.877 39.7363Q87.9732 39.8358 88.0893 39.8977ZM109.59 28.7324L103.508 28.7324L103.508 28.6621Q103.508 27.4756 103.86 26.6318Q104.16 25.9222 104.685 25.4805Q104.791 25.3916 104.905 25.3135Q105.008 25.2437 105.117 25.1843Q105.732 24.8477 106.531 24.8477Q107.392 24.8477 108.043 25.2164Q108.124 25.2621 108.201 25.3135Q108.386 25.4356 108.545 25.5842Q108.994 26.0027 109.247 26.6318Q109.59 27.4756 109.59 28.6621L109.59 28.7324ZM55.887 35.2871Q55.1479 35.9658 53.7855 35.9658Q52.5782 35.9658 51.8421 35.3769Q51.635 35.2112 51.4652 34.999Q50.6918 34.0234 50.6215 32.0811Q50.5863 31.5361 50.5863 30.6396Q50.5863 29.7432 50.6215 29.1982Q50.6918 27.291 51.4652 26.3066Q51.6547 26.0633 51.8906 25.8797Q52.6176 25.3135 53.7855 25.3135Q55.1082 25.3135 55.8435 25.9707Q56.0121 26.1214 56.1498 26.3066Q56.8881 27.291 56.9935 29.1982Q57.0287 29.7432 57.0287 30.6396Q57.0287 31.5361 56.9935 32.0811Q56.8881 34.0234 56.1498 34.999Q56.0301 35.1558 55.887 35.2871Z" fill="#FFFFFF" fill-opacity="1.000000" fill-rule="evenodd"/>
</svg>
