<svg width="20.000000" height="20.000000" viewBox="0 0 20 20" fill="none" xmlns="http://www.w3.org/2000/svg" xmlns:xlink="http://www.w3.org/1999/xlink">
	<desc>
			Created with Pixso.
	</desc>
	<defs>
		<clipPath id="clip12_119">
			<rect id="Icon (4)" width="20.000000" height="20.000000" fill="white" fill-opacity="0"/>
		</clipPath>
	</defs>
	<g clip-path="url(#clip12_119)">
		<path id="path" d="M5.625 2.5L5.625 4.375M14.375 2.5L14.375 4.375M2.5 6.25C2.5 5.21448 3.33936 4.375 4.375 4.375L15.625 4.375C16.6606 4.375 17.5 5.21448 17.5 6.25L17.5 15.625C17.5 16.6605 16.6606 17.5 15.625 17.5L4.375 17.5C3.33936 17.5 2.5 16.6605 2.5 15.625L2.5 6.25ZM2.5 15.625L2.5 9.375C2.5 8.33948 3.33936 7.5 4.375 7.5L15.625 7.5C16.6606 7.5 17.5 8.33948 17.5 9.375L17.5 15.625" stroke="#999999" stroke-opacity="1.000000" stroke-width="1.500000" stroke-linejoin="round"/>
	</g>
</svg>
