<svg width="40.000000" height="40.000000" viewBox="0 0 40 40" fill="none" xmlns="http://www.w3.org/2000/svg" xmlns:xlink="http://www.w3.org/1999/xlink">
	<desc>
			Created with Pixso.
	</desc>
	<defs>
		<clipPath id="clip10_247">
			<rect id="mac-desktop" width="40.000000" height="40.000000" fill="white" fill-opacity="0"/>
		</clipPath>
	</defs>
	<g clip-path="url(#clip10_247)">
		<path id="path" d="M35 3.33334L5 3.33334C3.16663 3.33334 1.66663 4.83334 1.66663 6.66668L1.66663 26.6667C1.66663 28.5 3.16663 30 5 30L16.6666 30L13.95 34.0833C13.2167 35.1833 14 36.6667 15.3333 36.6667L24.6666 36.6667C26 36.6667 26.7999 35.1833 26.0499 34.0833L23.3333 30L35 30C36.8333 30 38.3333 28.5 38.3333 26.6667L38.3333 6.66668C38.3333 4.83334 36.8333 3.33334 35 3.33334ZM35 23.3333L5 23.3333L5 8.33334C5 7.41668 5.75 6.66668 6.66663 6.66668L33.3333 6.66668C34.25 6.66668 35 7.41668 35 8.33334L35 23.3333Z" fill="#009FF2" fill-opacity="1.000000" fill-rule="nonzero"/>
	</g>
</svg>
