<svg width="20.000000" height="20.000000" viewBox="0 0 20 20" fill="none" xmlns="http://www.w3.org/2000/svg" xmlns:xlink="http://www.w3.org/1999/xlink">
	<desc>
			Created with Pixso.
	</desc>
	<defs>
		<clipPath id="clip12_167">
			<rect id="Icon (7)" width="20.000000" height="20.000000" fill="white" fill-opacity="0"/>
		</clipPath>
	</defs>
	<g clip-path="url(#clip12_167)">
		<path id="path" d="M5 3.125L6.875 3.125C7.91064 3.125 8.75 3.96447 8.75 5L8.75 6.875C8.75 7.91053 7.91064 8.75 6.875 8.75L5 8.75C3.96436 8.75 3.125 7.91053 3.125 6.875L3.125 5C3.125 3.96447 3.96436 3.125 5 3.125Z" stroke="#999999" stroke-opacity="1.000000" stroke-width="1.000000" stroke-linejoin="round"/>
		<path id="path" d="M5 11.25L6.875 11.25C7.91064 11.25 8.75 12.0895 8.75 13.125L8.75 15C8.75 16.0355 7.91064 16.875 6.875 16.875L5 16.875C3.96436 16.875 3.125 16.0355 3.125 15L3.125 13.125C3.125 12.0895 3.96436 11.25 5 11.25Z" stroke="#999999" stroke-opacity="1.000000" stroke-width="1.000000" stroke-linejoin="round"/>
		<path id="path" d="M13.125 3.125L15 3.125C16.0356 3.125 16.875 3.96447 16.875 5L16.875 6.875C16.875 7.91053 16.0356 8.75 15 8.75L13.125 8.75C12.0894 8.75 11.25 7.91053 11.25 6.875L11.25 5C11.25 3.96447 12.0894 3.125 13.125 3.125Z" stroke="#999999" stroke-opacity="1.000000" stroke-width="1.000000" stroke-linejoin="round"/>
		<path id="path" d="M13.125 11.25L15 11.25C16.0356 11.25 16.875 12.0895 16.875 13.125L16.875 15C16.875 16.0355 16.0356 16.875 15 16.875L13.125 16.875C12.0894 16.875 11.25 16.0355 11.25 15L11.25 13.125C11.25 12.0895 12.0894 11.25 13.125 11.25Z" stroke="#999999" stroke-opacity="1.000000" stroke-width="1.000000" stroke-linejoin="round"/>
	</g>
</svg>
