<svg width="24.000000" height="24.000000" viewBox="0 0 24 24" fill="none" xmlns="http://www.w3.org/2000/svg" xmlns:xlink="http://www.w3.org/1999/xlink">
	<desc>
			Created with Pixso.
	</desc>
	<defs>
		<clipPath id="clip12_108">
			<rect id="Inbox in" width="24.000000" height="24.000000" fill="white" fill-opacity="0"/>
		</clipPath>
	</defs>
	<g clip-path="url(#clip12_108)">
		<path id="path" d="M8 4L6 4C4.89551 4 4 4.89543 4 6L4 18C4 19.1046 4.89551 20 6 20L18 20C19.1045 20 20 19.1046 20 18L20 6C20 4.89543 19.1045 4 18 4L16 4M12 3L12 11M9 8L12 11L15 8M4 13L6.58569 13C6.85107 13 7.10547 13.1054 7.29297 13.2929L9.70703 15.7071C9.89453 15.8946 10.1489 16 10.4143 16L13.5857 16C13.8511 16 14.1055 15.8946 14.293 15.7071L16.707 13.2929C16.8945 13.1054 17.1489 13 17.4143 13L20 13" stroke="#FFFFFF" stroke-opacity="1.000000" stroke-width="2.000000" stroke-linejoin="round"/>
	</g>
</svg>
