<svg width="40.000000" height="40.000000" viewBox="0 0 40 40" fill="none" xmlns="http://www.w3.org/2000/svg" xmlns:xlink="http://www.w3.org/1999/xlink">
	<desc>
			Created with Pixso.
	</desc>
	<defs>
		<filter id="filter_10_233_dd" x="1.803955" y="6.200012" width="36.606934" height="26.799988" filterUnits="userSpaceOnUse" color-interpolation-filters="sRGB">
			<feFlood flood-opacity="0" result="BackgroundImageFix"/>
			<feGaussianBlur in="BackgroundImage" stdDeviation="6"/>
			<feComposite in2="SourceAlpha" operator="in" result="effect_backgroundBlur_1"/>
			<feBlend mode="normal" in="SourceGraphic" in2="effect_backgroundBlur_1" result="shape"/>
		</filter>
		<clipPath id="clip10_228">
			<rect id="Icon (2)" width="40.000000" height="40.000000" fill="white" fill-opacity="0"/>
		</clipPath>
	</defs>
	<g clip-path="url(#clip10_228)">
		<mask id="mask10_231" mask-type="alpha" maskUnits="userSpaceOnUse" x="1.800049" y="6.200012" width="36.599976" height="26.799995">
			<rect id="rect" x="1.800049" y="6.200012" width="36.599998" height="26.799999" fill="#000000" fill-opacity="1.000000"/>
		</mask>
		<g mask="url(#mask10_231)">
			<g filter="url(#filter_10_233_dd)">
				<path id="path" d="M33.1365 6.20001L20.1305 6.20001L7.1366 6.20001C5.81775 6.20001 5.45129 6.56548 5.45129 7.84456L5.45129 21.61C5.45129 22.8769 5.82996 23.2546 7.07556 23.2546L33.1365 23.2546C34.3821 23.2546 34.7606 22.8769 34.7606 21.61L34.7606 7.84456C34.7606 6.57765 34.3821 6.20001 33.1365 6.20001ZM3.37524 33L20.0449 33L36.849 33C37.1421 33 37.4596 32.9878 37.7405 32.8904C38.3877 32.6711 38.583 32.1351 38.2533 31.5382C37.0934 29.419 35.9213 27.312 34.7491 25.2049C34.4683 24.7176 34.0646 24.4727 33.5028 24.4727L6.69702 24.4727C6.13525 24.4727 5.73218 24.7164 5.46362 25.2037C4.29114 27.3111 3.11877 29.4186 1.95862 31.5382C1.62891 32.1351 1.83655 32.6711 2.48376 32.8904C2.75244 32.9878 3.06995 33 3.37524 33ZM20.8632 30.5664C20.6067 30.565 20.3502 30.5637 20.0938 30.5637C19.8378 30.5637 19.5818 30.565 19.3253 30.5663C18.811 30.5691 18.2949 30.5718 17.7734 30.5637C16.9918 30.5515 16.4546 30.0642 16.4424 29.3698C16.4302 28.6511 16.9796 28.1395 17.798 28.1395C19.3367 28.1273 20.8876 28.1273 22.4264 28.1395C23.2079 28.1517 23.7452 28.6389 23.7574 29.3333C23.7697 30.0398 23.2201 30.5515 22.402 30.5637C21.8889 30.5718 21.3761 30.5691 20.8632 30.5664Z" fill="#009FF2" fill-opacity="1.000000" fill-rule="evenodd"/>
				<mask id="mask10_237" mask-type="alpha" maskUnits="userSpaceOnUse" x="1.803955" y="6.200012" width="36.606934" height="26.799988">
					<path id="path" d="M33.1365 6.20001L20.1305 6.20001L7.1366 6.20001C5.81775 6.20001 5.45129 6.56548 5.45129 7.84456L5.45129 21.61C5.45129 22.8769 5.82996 23.2546 7.07556 23.2546L33.1365 23.2546C34.3821 23.2546 34.7606 22.8769 34.7606 21.61L34.7606 7.84456C34.7606 6.57765 34.3821 6.20001 33.1365 6.20001ZM3.37524 33L20.0449 33L36.849 33C37.1421 33 37.4596 32.9878 37.7405 32.8904C38.3877 32.6711 38.583 32.1351 38.2533 31.5382C37.0934 29.419 35.9213 27.312 34.7491 25.2049C34.4683 24.7176 34.0646 24.4727 33.5028 24.4727L6.69702 24.4727C6.13525 24.4727 5.73218 24.7164 5.46362 25.2037C4.29114 27.3111 3.11877 29.4186 1.95862 31.5382C1.62891 32.1351 1.83655 32.6711 2.48376 32.8904C2.75244 32.9878 3.06995 33 3.37524 33ZM20.8632 30.5664C20.6067 30.565 20.3502 30.5637 20.0938 30.5637C19.8378 30.5637 19.5818 30.565 19.3253 30.5663C18.811 30.5691 18.2949 30.5718 17.7734 30.5637C16.9918 30.5515 16.4546 30.0642 16.4424 29.3698C16.4302 28.6511 16.9796 28.1395 17.798 28.1395C19.3367 28.1273 20.8876 28.1273 22.4264 28.1395C23.2079 28.1517 23.7452 28.6389 23.7574 29.3333C23.7697 30.0398 23.2201 30.5515 22.402 30.5637C21.8889 30.5718 21.3761 30.5691 20.8632 30.5664Z" fill="#FFFFFF" fill-opacity="1.000000" fill-rule="evenodd"/>
				</mask>
				<g mask="url(#mask10_237)">
					<path id="path" d="M37.7405 32.8904L37.4196 31.9432L37.7405 32.8904ZM38.2534 31.5382L37.4196 31.9432L38.2534 31.5382ZM34.7491 25.2049L35.623 24.7188L34.7491 25.2049ZM34.7491 25.2049L35.623 24.7188L34.7491 25.2049ZM5.46362 25.2037L6.3385 25.688L5.46362 25.2037ZM5.46362 25.2037L6.3385 25.688L5.46362 25.2037ZM1.95862 31.5382L2.83398 32.0217L1.95862 31.5382ZM2.48376 32.8904L2.83398 32.0217L2.48376 32.8904ZM20.8632 30.5664L20.8579 31.5663L20.8632 30.5664ZM19.3253 30.5663L19.3201 29.5664L19.3253 30.5663ZM17.7734 30.5637L17.7891 29.5638L17.7734 30.5637ZM16.4424 29.3698L15.4425 29.3868L16.4424 29.3698ZM17.798 28.1395L17.798 29.1395L17.798 28.1395ZM22.4264 28.1395L22.442 27.1396L22.4264 28.1395ZM23.7574 29.3333L24.7573 29.316L23.7574 29.3333ZM22.402 30.5637L22.3871 29.5638L22.402 30.5637ZM20.1305 7.20001L33.1365 7.20001L33.1365 5.20001L20.1305 5.20001L20.1305 7.20001ZM7.13672 7.20001L20.1305 7.20001L20.1305 5.20001L7.13672 5.20001L7.13672 7.20001ZM6.45142 7.84456C6.45142 7.56224 6.47278 7.3943 6.4978 7.29656C6.60547 7.27001 6.84314 7.20001 7.13672 7.20001L7.13672 5.20001C6.46191 5.20001 5.66553 5.27382 5.09961 5.82832C4.52661 6.38967 4.45142 7.18444 4.45142 7.84456L6.45142 7.84456ZM6.45142 21.61L6.45142 7.84456L4.45142 7.84456L4.45142 21.61L6.45142 21.61ZM7.07556 22.2546C6.8053 22.2546 6.64355 22.233 6.5498 22.2084C6.52441 22.1098 6.45142 21.8862 6.45142 21.61L4.45142 21.61C4.45142 22.2745 4.53369 23.0535 5.08582 23.6111C5.64124 24.1718 6.41919 24.2546 7.07556 24.2546L7.07556 22.2546ZM33.1365 22.2546L7.07556 22.2546L7.07556 24.2546L33.1365 24.2546L33.1365 22.2546ZM33.7606 21.61C33.7606 21.8862 33.739 22.0536 33.7136 22.1522C33.6198 22.1768 33.4067 22.2546 33.1365 22.2546L33.1365 24.2546C33.7928 24.2546 34.5708 24.1718 35.1262 23.6111C35.6783 23.0535 35.7606 22.2745 35.7606 21.61L33.7606 21.61ZM33.7606 7.84456L33.7606 21.61L35.7606 21.61L35.7606 7.84456L33.7606 7.84456ZM33.1365 7.20001C33.4067 7.20001 33.5685 7.22158 33.6622 7.24616C33.6876 7.34483 33.7606 7.56835 33.7606 7.84456L35.7606 7.84456C35.7606 7.18003 35.6783 6.40106 35.1262 5.84351C34.5708 5.28275 33.7928 5.20001 33.1365 5.20001L33.1365 7.20001ZM20.0449 32L3.37524 32L3.37524 34L20.0449 34L20.0449 32ZM36.849 32L20.0449 32L20.0449 34L36.849 34L36.849 32ZM37.4196 31.9432C37.3123 31.9805 37.1382 32 36.849 32L36.849 34C37.146 34 37.6138 33.9928 38.0682 33.8351L37.4196 31.9432ZM37.4196 31.9432C37.452 32.0019 37.4127 32.1065 37.4117 32.0997C37.4137 32.0817 37.4111 31.9659 37.4196 31.9432L38.0682 33.8351C38.5955 33.6565 39.0791 33.295 39.2996 32.7071C39.5183 32.1242 39.3922 31.5318 39.1287 31.0547L37.4196 31.9432ZM33.8752 25.6911C35.0476 27.7986 36.2616 29.8275 37.4196 31.9432L39.1287 31.0547C37.9669 28.9319 36.7949 26.8253 35.623 24.7188L33.8752 25.6911ZM35.623 24.7188L33.8752 25.6911L35.623 24.7188ZM33.5029 25.4727C33.6344 25.4727 33.6938 25.4996 33.722 25.5163C33.7523 25.5341 33.8032 25.5662 33.8752 25.6911L35.623 24.7188C35.4142 24.3565 35.1218 24.0204 34.7399 23.7946C34.356 23.5677 33.9331 23.4727 33.5029 23.4727L33.5029 25.4727ZM6.69702 25.4727L33.5029 25.4727L33.5029 23.4727L6.69702 23.4727L6.69702 25.4727ZM6.3385 25.688C6.40332 25.5705 6.45667 25.5298 6.48206 25.5147C6.50684 25.4999 6.5647 25.4727 6.69702 25.4727L6.69702 23.4727C6.26758 23.4727 5.84302 23.5674 5.45874 23.7963C5.07507 24.0248 4.79175 24.3511 4.58789 24.7208L6.3385 25.688ZM4.58789 24.7208L6.3385 25.688L4.58789 24.7208ZM2.83398 32.0217C3.99219 29.9056 5.16589 27.796 6.3385 25.688L4.58789 24.7208C3.41577 26.8277 2.24353 28.9349 1.08142 31.0581L2.83398 32.0217ZM2.83398 32.0217C2.77271 32.0009 2.72656 31.9057 2.73364 31.9117C2.73743 31.915 2.82336 32.0069 2.83398 32.0217L1.08142 31.0581C0.814087 31.5421 0.696655 32.1354 0.922607 32.7177C1.14856 33.2998 1.63892 33.66 2.16296 33.8375L2.83398 32.0217ZM3.37524 32C3.06592 32 2.91943 32.0527 2.83398 32.0217L2.16296 33.8375C2.61487 34.0015 3.0741 34 3.37524 34L3.37524 32ZM20.0938 31.5637C20.3472 31.5637 20.601 31.565 20.8579 31.5663L20.8684 29.5664C20.6124 29.565 20.3534 29.5637 20.0938 29.5637L20.0938 31.5637ZM19.3306 31.5663C19.5875 31.565 19.8408 31.5637 20.0938 31.5637L20.0938 29.5637C19.8347 29.5637 19.576 29.565 19.3201 29.5664L19.3306 31.5663ZM17.7578 31.5635C18.2916 31.5718 18.8179 31.569 19.3306 31.5663L19.3201 29.5664C18.8042 29.5691 18.2985 29.5717 17.7891 29.5638L17.7578 31.5635ZM15.4425 29.3868C15.4532 30.0017 15.7036 30.5639 16.1505 30.966C16.5902 31.3616 17.1638 31.5543 17.7578 31.5635L17.7891 29.5638C17.6017 29.5609 17.5156 29.5038 17.4883 29.4792C17.468 29.461 17.4436 29.4317 17.4421 29.3522L15.4425 29.3868ZM17.798 27.1395C17.1814 27.1395 16.5853 27.3343 16.1339 27.7471C15.6747 28.1671 15.4318 28.7541 15.4425 29.3868L17.4421 29.3522C17.448 29.3383 17.4698 29.2356 17.4835 29.2231C17.5084 29.2005 17.5963 29.1395 17.798 29.1395L17.798 27.1395ZM22.442 27.1396C20.8979 27.1274 19.342 27.1273 17.798 27.1395L17.798 29.1395C19.3314 29.1274 20.885 29.1273 22.4185 29.1394L22.442 27.1396ZM24.7573 29.316C24.7465 28.7011 24.4962 28.1392 24.0493 27.7372C23.6096 27.3416 23.036 27.1489 22.442 27.1396L22.4185 29.1394C22.6058 29.1424 22.6842 29.1993 22.7115 29.224C22.7318 29.2422 22.7562 29.2714 22.7577 29.3509L24.7573 29.316ZM22.4167 31.5635C23.0293 31.5544 23.619 31.3555 24.0659 30.9468C24.5211 30.5305 24.7683 29.9484 24.7573 29.316L22.7577 29.3509C22.7523 29.3635 22.7318 29.4567 22.7163 29.4709C22.687 29.4977 22.5928 29.5607 22.3871 29.5638L22.4167 31.5635ZM20.8579 31.5663C21.369 31.569 21.8916 31.5718 22.4167 31.5635L22.3871 29.5638C21.8865 29.5717 21.3832 29.5691 20.8684 29.5664L20.8579 31.5663Z" fill="#009FF2" fill-opacity="1.000000" fill-rule="nonzero"/>
				</g>
			</g>
		</g>
	</g>
</svg>
