<svg width="40.000000" height="40.000000" viewBox="0 0 40 40" fill="none" xmlns="http://www.w3.org/2000/svg" xmlns:xlink="http://www.w3.org/1999/xlink">
	<desc>
			Created with Pixso.
	</desc>
	<defs>
		<clipPath id="clip59_5">
			<rect id="laptop" width="40.000000" height="40.000000" fill="white" fill-opacity="0"/>
		</clipPath>
	</defs>
	<g clip-path="url(#clip59_5)">
		<path id="path" d="M33.75 25.45L33.75 8.12C33.75 7.7 33.54 7.5 33.12 7.5L6.87 7.5C6.45 7.5 6.25 7.7 6.25 8.12L6.25 25.45L2.58 31.55C2.46 31.76 2.46 31.97 2.58 32.18C2.7 32.39 2.88 32.5 3.12 32.5L36.87 32.5C37.11 32.5 37.29 32.39 37.41 32.18C37.53 31.97 37.53 31.76 37.41 31.55L33.75 25.45ZM7.5 8.75L32.5 8.75L32.5 25L7.5 25L7.5 8.75ZM4.22 31.25L7.22 26.25L32.77 26.25L35.77 31.25L4.22 31.25Z" fill="#009FF2" fill-opacity="1.000000" fill-rule="nonzero"/>
		<path id="path" d="M19.55 9.55C19.43 9.68 19.37 9.82 19.37 10C19.37 10.17 19.43 10.32 19.55 10.44C19.85 10.73 20.14 10.73 20.44 10.44C20.73 10.14 20.73 9.85 20.44 9.55C20.14 9.26 19.85 9.26 19.55 9.55ZM12.81 27.5C12.81 27.08 12.6 26.87 12.18 26.87L10.31 26.87C9.89 26.87 9.68 27.08 9.68 27.5C9.68 27.91 9.89 28.12 10.31 28.12L12.18 28.12C12.6 28.12 12.81 27.91 12.81 27.5ZM17.18 27.5C17.18 27.08 16.97 26.87 16.56 26.87L14.68 26.87C14.27 26.87 14.06 27.08 14.06 27.5C14.06 27.91 14.27 28.12 14.68 28.12L16.56 28.12C16.97 28.12 17.18 27.91 17.18 27.5ZM19.06 28.12L20.93 28.12C21.35 28.12 21.56 27.91 21.56 27.5C21.56 27.08 21.35 26.87 20.93 26.87L19.06 26.87C18.64 26.87 18.43 27.08 18.43 27.5C18.43 27.91 18.64 28.12 19.06 28.12ZM25.93 27.5C25.93 27.08 25.72 26.87 25.31 26.87L23.43 26.87C23.02 26.87 22.81 27.08 22.81 27.5C22.81 27.91 23.02 28.12 23.43 28.12L25.31 28.12C25.72 28.12 25.93 27.91 25.93 27.5ZM30.31 27.5C30.31 27.08 30.1 26.87 29.68 26.87L27.81 26.87C27.39 26.87 27.18 27.08 27.18 27.5C27.18 27.91 27.39 28.12 27.81 28.12L29.68 28.12C30.1 28.12 30.31 27.91 30.31 27.5ZM9.37 29.37L7.5 29.37C7.08 29.37 6.87 29.58 6.87 30C6.87 30.41 7.08 30.62 7.5 30.62L9.37 30.62C9.79 30.62 10 30.41 10 30C10 29.58 9.79 29.37 9.37 29.37ZM13.75 29.37L11.87 29.37C11.45 29.37 11.25 29.58 11.25 30C11.25 30.41 11.45 30.62 11.87 30.62L13.75 30.62C14.16 30.62 14.37 30.41 14.37 30C14.37 29.58 14.16 29.37 13.75 29.37ZM23.75 29.37L16.25 29.37C15.83 29.37 15.62 29.58 15.62 30C15.62 30.41 15.83 30.62 16.25 30.62L23.75 30.62C24.16 30.62 24.37 30.41 24.37 30C24.37 29.58 24.16 29.37 23.75 29.37ZM28.12 29.37L26.25 29.37C25.83 29.37 25.62 29.58 25.62 30C25.62 30.41 25.83 30.62 26.25 30.62L28.12 30.62C28.54 30.62 28.75 30.41 28.75 30C28.75 29.58 28.54 29.37 28.12 29.37ZM30.62 29.37C30.2 29.37 30 29.58 30 30C30 30.41 30.2 30.62 30.62 30.62L32.5 30.62C32.91 30.62 33.12 30.41 33.12 30C33.12 29.58 32.91 29.37 32.5 29.37L30.62 29.37Z" fill="#009FF2" fill-opacity="1.000000" fill-rule="nonzero"/>
	</g>
</svg>
