<svg width="40.000000" height="40.000000" viewBox="0 0 40 40" fill="none" xmlns="http://www.w3.org/2000/svg" xmlns:xlink="http://www.w3.org/1999/xlink">
	<desc>
			Created with Pixso.
	</desc>
	<defs>
		<filter id="filter_10_244_dd" x="10.395020" y="1.602814" width="19.654907" height="36.005592" filterUnits="userSpaceOnUse" color-interpolation-filters="sRGB">
			<feFlood flood-opacity="0" result="BackgroundImageFix"/>
			<feGaussianBlur in="BackgroundImage" stdDeviation="6"/>
			<feComposite in2="SourceAlpha" operator="in" result="effect_backgroundBlur_1"/>
			<feBlend mode="normal" in="SourceGraphic" in2="effect_backgroundBlur_1" result="shape"/>
		</filter>
		<clipPath id="clip10_239">
			<rect id="Icon (3)" width="40.000000" height="40.000000" fill="white" fill-opacity="0"/>
		</clipPath>
	</defs>
	<g clip-path="url(#clip10_239)">
		<mask id="mask10_242" mask-type="alpha" maskUnits="userSpaceOnUse" x="10.400024" y="1.600006" width="19.641479" height="36.000000">
			<rect id="rect" x="10.400024" y="1.600006" width="19.641500" height="36.000000" fill="#000000" fill-opacity="1.000000"/>
		</mask>
		<g mask="url(#mask10_242)">
			<g filter="url(#filter_10_244_dd)">
				<path id="path" d="M10.4 19.6C10.4 14.9566 10.3888 10.3021 10.4 5.65871C10.4 3.74741 11.3669 2.35327 13.0646 1.80238C13.4693 1.66745 13.9078 1.61124 14.3351 1.61124C18.2589 1.60001 22.1827 1.60001 26.0952 1.61124C28.3775 1.62248 30.0415 3.27521 30.0415 5.54628C30.0527 14.9229 30.0527 24.2883 30.0415 33.665C30.0415 35.936 28.3775 37.6 26.1065 37.6C22.2276 37.6112 18.3488 37.6112 14.47 37.6C12.0415 37.6 10.4225 36.0035 10.4113 33.5525C10.3888 28.8979 10.4 24.2546 10.4 19.6ZM20.2264 4.8717C19.4619 4.8717 18.6973 4.8717 17.9216 4.8717C17.3144 4.88294 16.9772 5.16402 16.9659 5.65871C16.9547 6.16464 17.2695 6.51318 17.8541 6.51318C19.4281 6.53566 20.9909 6.53566 22.5649 6.51318C23.1271 6.50194 23.5093 6.11967 23.4868 5.65871C23.4644 5.1865 23.0933 4.8717 22.5199 4.8717C21.7554 4.8717 20.9909 4.8717 20.2264 4.8717ZM20.2264 31.0791C19.3045 31.0791 18.5737 31.8099 18.5849 32.7093C18.5961 33.6087 19.3494 34.3395 20.2489 34.3283C21.1258 34.317 21.8341 33.5975 21.8341 32.7093C21.8454 31.7761 21.1483 31.0791 20.2264 31.0791Z" fill="#009FF2" fill-opacity="1.000000" fill-rule="nonzero"/>
				<path id="path" d="M18.026 4.3717L18.1304 4.3717L18.2346 4.3717L18.3387 4.3717L18.4427 4.3717L18.5466 4.3717L18.6504 4.3717L18.7542 4.3717L18.8577 4.3717L18.9612 4.3717L19.0647 4.3717L19.1681 4.3717L19.2714 4.3717L19.3747 4.3717L19.4779 4.3717L19.5811 4.3717L19.6842 4.3717L19.7873 4.3717L19.8904 4.3717L19.9934 4.3717L20.0965 4.3717L20.1995 4.3717L20.3025 4.3717L20.4056 4.3717L20.5086 4.3717L20.6116 4.3717L20.7147 4.3717L20.8177 4.3717L20.9207 4.3717L21.0237 4.3717L21.1268 4.3717L21.2298 4.3717L21.3328 4.3717L21.4359 4.3717L21.5389 4.3717L21.6419 4.3717L21.745 4.3717L21.848 4.3717L21.951 4.3717L22.0541 4.3717L22.1571 4.3717L22.2601 4.3717L22.3632 4.3717L22.4662 4.3717C22.8422 4.3717 23.2524 4.47533 23.5278 4.70216C23.8095 4.93414 23.9688 5.26518 23.9863 5.63493C24.0249 6.43346 23.3586 6.99741 22.5749 7.01308C20.9972 7.03561 19.4279 7.03568 17.8503 7.01318C17.4601 7.01241 17.0974 6.89366 16.833 6.62923C16.5672 6.36343 16.458 6.00745 16.466 5.64735C16.4744 5.2803 16.6101 4.93945 16.9018 4.69843C17.18 4.46864 17.5502 4.37849 17.9216 4.37161L18.026 4.3717ZM17.9216 4.37161L23.4868 5.65871L23.9863 5.63493M17.9216 4.37161L16.9659 5.65871M23.4868 5.65871C23.5093 6.11967 23.1271 6.50194 22.5649 6.51318C20.9909 6.53567 19.4281 6.53567 17.8541 6.51318C17.2695 6.51318 16.9547 6.16464 16.9659 5.65871C16.9772 5.16402 17.3144 4.88294 17.9216 4.8717L16.9659 5.65871M17.8503 7.01318L17.8541 6.51318M13.2189 2.27796C13.5623 2.16351 13.9494 2.11124 14.3351 2.11124C18.2578 2.10001 22.1818 2.10001 26.0932 2.11124C28.1043 2.12138 29.5415 3.55475 29.5415 5.54629C29.5527 14.9225 29.5527 24.2881 29.5415 33.6644C29.5415 35.6593 28.1014 37.1 26.1065 37.1C22.2286 37.1112 18.3493 37.1112 14.4714 37.1C13.3689 37.1 12.4892 36.7397 11.8866 36.1408C11.2843 35.542 10.9164 34.6637 10.9113 33.5502C10.8944 30.0611 10.8965 26.5787 10.8986 23.0916C10.8993 21.9284 10.9 20.7647 10.9 19.6C10.9 18.0518 10.8988 16.5027 10.8975 14.9535C10.895 11.8547 10.8925 8.75513 10.9 5.65993C10.9 3.94569 11.7454 2.75613 13.2189 2.27796ZM22.3341 32.7123C22.3472 31.5011 21.4247 30.5791 20.2264 30.5791C19.0341 30.5791 18.0701 31.5294 18.0849 32.7156C18.0997 33.8927 19.0811 34.8429 20.2551 34.8283C21.4077 34.8136 22.3325 33.8697 22.3341 32.7123Z" stroke="#009FF2" stroke-opacity="1.000000" stroke-width="1.000000"/>
			</g>
		</g>
	</g>
</svg>
