<svg width="20.000000" height="20.000000" viewBox="0 0 20 20" fill="none" xmlns="http://www.w3.org/2000/svg" xmlns:xlink="http://www.w3.org/1999/xlink">
	<desc>
			Created with Pixso.
	</desc>
	<defs>
		<clipPath id="clip12_175">
			<rect id="Icon (6)" width="20.000000" height="20.000000" fill="white" fill-opacity="0"/>
		</clipPath>
	</defs>
	<g clip-path="url(#clip12_175)">
		<path id="path" d="M10.4321 2.91557L12.2041 7.17511C12.2715 7.3374 12.4238 7.4483 12.5991 7.46234L17.1978 7.83101C17.6133 7.86432 17.7817 8.38301 17.4653 8.65425L13.9619 11.6555C13.8281 11.7698 13.77 11.9492 13.8105 12.1202L14.8809 16.6076C14.978 17.0132 14.5366 17.3338 14.1807 17.1164L10.2437 14.7117C10.0938 14.6201 9.90527 14.6201 9.75488 14.7117L5.81787 17.1164C5.4624 17.3338 5.021 17.0132 5.11768 16.6076L6.18799 12.1202C6.229 11.9492 6.1709 11.7698 6.03711 11.6555L2.53369 8.65425C2.2168 8.38301 2.38525 7.86432 2.80127 7.83101L7.39941 7.46234C7.57471 7.4483 7.72754 7.3374 7.79492 7.17511L9.56641 2.91557C9.72656 2.53058 10.272 2.53058 10.4321 2.91557Z" stroke="#999999" stroke-opacity="1.000000" stroke-width="1.000000" stroke-linejoin="round"/>
	</g>
</svg>
