<svg width="41.000000" height="40.000000" viewBox="0 0 41 40" fill="none" xmlns="http://www.w3.org/2000/svg" xmlns:xlink="http://www.w3.org/1999/xlink">
	<desc>
			Created with Pixso.
	</desc>
	<defs>
		<filter id="filter_10_194_dd" x="6.733276" y="1.600006" width="27.452637" height="36.000000" filterUnits="userSpaceOnUse" color-interpolation-filters="sRGB">
			<feFlood flood-opacity="0" result="BackgroundImageFix"/>
			<feGaussianBlur in="BackgroundImage" stdDeviation="6"/>
			<feComposite in2="SourceAlpha" operator="in" result="effect_backgroundBlur_1"/>
			<feBlend mode="normal" in="SourceGraphic" in2="effect_backgroundBlur_1" result="shape"/>
		</filter>
		<clipPath id="clip10_189">
			<rect id="Icon (1)" width="41.000000" height="40.000000" fill="white" fill-opacity="0"/>
		</clipPath>
	</defs>
	<g clip-path="url(#clip10_189)">
		<mask id="mask10_191" mask-type="alpha" maskUnits="userSpaceOnUse" x="6.733276" y="1.600006" width="27.452759" height="36.000000">
			<rect id="rect" x="6.733276" y="1.600006" width="27.452700" height="36.000000" fill="#000000" fill-opacity="1.000000"/>
		</mask>
		<g mask="url(#mask10_191)">
			<g filter="url(#filter_10_194_dd)">
				<path id="path" d="M6.73328 19.5831C6.73328 14.7696 6.73328 9.94489 6.73328 5.13139C6.73328 2.89335 8.02661 1.60001 10.2534 1.60001C17.0575 1.60001 23.8617 1.60001 30.6658 1.60001C32.8926 1.60001 34.1859 2.89335 34.1859 5.13139C34.1859 14.7921 34.1859 24.4416 34.1859 34.1023C34.1859 36.2954 32.8813 37.6 30.6995 37.6C23.8729 37.6 17.0576 37.6 10.231 37.6C8.04907 37.6 6.74451 36.2842 6.74451 34.1023C6.73328 29.2664 6.73328 24.4191 6.73328 19.5831ZM17.3387 33.3376C19.4305 33.3376 21.4999 33.3376 23.5693 33.3376C23.5693 32.6403 23.5693 31.9992 23.5693 31.3357C21.4662 31.3357 19.4081 31.3357 17.3387 31.3357C17.3387 32.0217 17.3387 32.674 17.3387 33.3376Z" fill="#009FF2" fill-opacity="1.000000" fill-rule="nonzero"/>
				<mask id="mask10_197" mask-type="alpha" maskUnits="userSpaceOnUse" x="6.733276" y="1.600006" width="27.452637" height="36.000000">
					<path id="path" d="M6.73328 19.5831C6.73328 14.7696 6.73328 9.94489 6.73328 5.13139C6.73328 2.89335 8.02661 1.60001 10.2534 1.60001C17.0575 1.60001 23.8617 1.60001 30.6658 1.60001C32.8926 1.60001 34.1859 2.89335 34.1859 5.13139C34.1859 14.7921 34.1859 24.4416 34.1859 34.1023C34.1859 36.2954 32.8813 37.6 30.6995 37.6C23.8729 37.6 17.0576 37.6 10.231 37.6C8.04907 37.6 6.74451 36.2842 6.74451 34.1023C6.73328 29.2664 6.73328 24.4191 6.73328 19.5831ZM17.3387 33.3376C19.4305 33.3376 21.4999 33.3376 23.5693 33.3376C23.5693 32.6403 23.5693 31.9992 23.5693 31.3357C21.4662 31.3357 19.4081 31.3357 17.3387 31.3357C17.3387 32.0217 17.3387 32.674 17.3387 33.3376Z" fill="#FFFFFF" fill-opacity="1.000000" fill-rule="nonzero"/>
				</mask>
				<g mask="url(#mask10_197)">
					<path id="path" d="M6.74451 34.1023L7.74451 34.1023L6.74451 34.1023ZM17.3387 33.3376L16.3387 33.3376L16.3387 34.3376L17.3387 34.3376L17.3387 33.3376ZM23.5693 33.3376L23.5693 34.3376L24.5693 34.3376L24.5693 33.3376L23.5693 33.3376ZM23.5693 31.3357L24.5693 31.3357L24.5693 30.3357L23.5693 30.3357L23.5693 31.3357ZM17.3387 31.3357L17.3387 30.3357L16.3387 30.3357L16.3387 31.3357L17.3387 31.3357ZM7.73328 19.5831C7.73328 19.5737 7.73328 19.4797 7.73328 19.4703C7.73328 19.4609 7.73328 19.3669 7.73328 19.3575C7.73328 19.3481 7.73328 19.2541 7.73328 19.2447C7.73328 19.2353 7.73328 19.1412 7.73328 19.1318C7.73328 19.1224 7.73328 19.0284 7.73328 19.019C7.73328 19.0096 7.73328 18.9156 7.73328 18.9062C7.73328 18.8968 7.73328 18.8027 7.73328 18.7933C7.73328 18.7839 7.73328 18.6899 7.73328 18.6805C7.73328 18.6711 7.73328 18.577 7.73328 18.5676C7.73328 18.5582 7.73328 18.4642 7.73328 18.4548C7.73328 18.4454 7.73328 18.3513 7.73328 18.3419C7.73328 18.3325 7.73328 18.2385 7.73328 18.2291C7.73328 18.2197 7.73328 18.1256 7.73328 18.1162C7.73328 18.1068 7.73328 18.0127 7.73328 18.0033C7.73328 17.9939 7.73328 17.8999 7.73328 17.8905C7.73328 17.8811 7.73328 17.787 7.73328 17.7776C7.73328 17.7682 7.73328 17.6741 7.73328 17.6647C7.73328 17.6553 7.73328 17.5612 7.73328 17.5518C7.73328 17.5424 7.73328 17.4484 7.73328 17.4389C7.73328 17.4295 7.73328 17.3355 7.73328 17.3261C7.73328 17.3167 7.73328 17.2226 7.73328 17.2132C7.73328 17.2038 7.73328 17.1097 7.73328 17.1003C7.73328 17.0909 7.73328 16.9968 7.73328 16.9874C7.73328 16.978 7.73328 16.8839 7.73328 16.8745C7.73328 16.8651 7.73328 16.771 7.73328 16.7616C7.73328 16.7522 7.73328 16.6581 7.73328 16.6487C7.73328 16.6393 7.73328 16.5452 7.73328 16.5358C7.73328 16.5264 7.73328 16.4323 7.73328 16.4229C7.73328 16.4135 7.73328 16.3194 7.73328 16.31C7.73328 16.3006 7.73328 16.2065 7.73328 16.1971C7.73328 16.1877 7.73328 16.0936 7.73328 16.0842C7.73328 16.0748 7.73328 15.9807 7.73328 15.9712C7.73328 15.9618 7.73328 15.8677 7.73328 15.8583C7.73328 15.8489 7.73328 15.7548 7.73328 15.7454C7.73328 15.736 7.73328 15.6419 7.73328 15.6325C7.73328 15.6231 7.73328 15.529 7.73328 15.5196C7.73328 15.5102 7.73328 15.4161 7.73328 15.4066C7.73328 15.3971 7.73328 15.3031 7.73328 15.2937C7.73328 15.2843 7.73328 15.1902 7.73328 15.1808C7.73328 15.1714 7.73328 15.0773 7.73328 15.0679C7.73328 15.0585 7.73328 14.9643 7.73328 14.9549C7.73328 14.9455 7.73328 14.8514 7.73328 14.842C7.73328 14.8326 7.73328 14.7385 7.73328 14.7291C7.73328 14.7197 7.73328 14.6255 7.73328 14.6161C7.73328 14.6067 7.73328 14.5126 7.73328 14.5032C7.73328 14.4938 7.73328 14.3997 7.73328 14.3903C7.73328 14.3808 7.73328 14.2867 7.73328 14.2773C7.73328 14.2679 7.73328 14.1738 7.73328 14.1644C7.73328 14.155 7.73328 14.0609 7.73328 14.0514C7.73328 14.042 7.73328 13.9479 7.73328 13.9385C7.73328 13.9291 7.73328 13.835 7.73328 13.8256C7.73328 13.8161 7.73328 13.722 7.73328 13.7126C7.73328 13.7032 7.73328 13.6091 7.73328 13.5997C7.73328 13.5903 7.73328 13.4961 7.73328 13.4867C7.73328 13.4773 7.73328 13.3832 7.73328 13.3738C7.73328 13.3644 7.73328 13.2703 7.73328 13.2608C7.73328 13.2514 7.73328 13.1573 7.73328 13.1479C7.73328 13.1385 7.73328 13.0444 7.73328 13.0349C7.73328 13.0255 7.73328 12.9314 7.73328 12.922C7.73328 12.9126 7.73328 12.8185 7.73328 12.8091C7.73328 12.7997 7.73328 12.7055 7.73328 12.6961C7.73328 12.6867 7.73328 12.5926 7.73328 12.5832C7.73328 12.5738 7.73328 12.4796 7.73328 12.4702C7.73328 12.4608 7.73328 12.3667 7.73328 12.3573C7.73328 12.3478 7.73328 12.2537 7.73328 12.2443C7.73328 12.2349 7.73328 12.1408 7.73328 12.1314C7.73328 12.1219 7.73328 12.0278 7.73328 12.0184C7.73328 12.009 7.73328 11.9149 7.73328 11.9055C7.73328 11.896 7.73328 11.8019 7.73328 11.7925C7.73328 11.7831 7.73328 11.689 7.73328 11.6796C7.73328 11.6702 7.73328 11.576 7.73328 11.5666C7.73328 11.5572 7.73328 11.4631 7.73328 11.4537C7.73328 11.4443 7.73328 11.3501 7.73328 11.3407C7.73328 11.3313 7.73328 11.2372 7.73328 11.2278C7.73328 11.2184 7.73328 11.1243 7.73328 11.1148C7.73328 11.1054 7.73328 11.0113 7.73328 11.0019C7.73328 10.9925 7.73328 10.8984 7.73328 10.889C7.73328 10.8795 7.73328 10.7854 7.73328 10.776C7.73328 10.7666 7.73328 10.6725 7.73328 10.6631C7.73328 10.6537 7.73328 10.5595 7.73328 10.5501C7.73328 10.5407 7.73328 10.4466 7.73328 10.4372C7.73328 10.4278 7.73328 10.3337 7.73328 10.3243C7.73328 10.3148 7.73328 10.2207 7.73328 10.2113C7.73328 10.2019 7.73328 10.1078 7.73328 10.0984C7.73328 10.089 7.73328 9.99487 7.73328 9.98546C7.73328 9.97604 7.73328 9.88194 7.73328 9.87253C7.73328 9.86311 7.73328 9.76901 7.73328 9.7596C7.73328 9.75018 7.73328 9.65608 7.73328 9.64667C7.73328 9.63726 7.73328 9.54315 7.73328 9.53374C7.73328 9.52433 7.73328 9.43022 7.73328 9.42081C7.73328 9.4114 7.73328 9.31729 7.73328 9.30788C7.73328 9.29847 7.73328 9.20437 7.73328 9.19496C7.73328 9.18555 7.73328 9.09145 7.73328 9.08204C7.73328 9.07263 7.73328 8.97853 7.73328 8.96912C7.73328 8.95971 7.73328 8.86561 7.73328 8.8562C7.73328 8.84679 7.73328 8.75269 7.73328 8.74328C7.73328 8.73387 7.73328 8.63978 7.73328 8.63037C7.73328 8.62096 7.73328 8.52687 7.73328 8.51746C7.73328 8.50805 7.73328 8.41396 7.73328 8.40455C7.73328 8.39513 7.73328 8.30105 7.73328 8.29164C7.73328 8.28223 7.73328 8.18814 7.73328 8.17874C7.73328 8.16933 7.73328 8.07524 7.73328 8.06583C7.73328 8.05642 7.73328 7.96234 7.73328 7.95293C7.73328 7.94352 7.73328 7.84944 7.73328 7.84003C7.73328 7.83062 7.73328 7.73655 7.73328 7.72713C7.73328 7.71773 7.73328 7.62365 7.73328 7.61425C7.73328 7.60484 7.73328 7.51076 7.73328 7.50136C7.73328 7.49195 7.73328 7.39788 7.73328 7.38847C7.73328 7.37906 7.73328 7.28499 7.73328 7.27558C7.73328 7.26617 7.73328 7.17211 7.73328 7.1627C7.73328 7.1533 7.73328 7.05923 7.73328 7.04982C7.73328 7.04041 7.73328 6.94635 7.73328 6.93695C7.73328 6.92755 7.73328 6.83348 7.73328 6.82408C7.73328 6.81468 7.73328 6.72061 7.73328 6.71121C7.73328 6.7018 7.73328 6.60775 7.73328 6.59834C7.73328 6.58894 7.73328 6.49488 7.73328 6.48548C7.73328 6.47607 7.73328 6.38202 7.73328 6.37262C7.73328 6.3632 7.73328 6.26917 7.73328 6.25976C7.73328 6.25036 7.73328 6.15631 7.73328 6.14691C7.73328 6.1375 7.73328 6.04346 7.73328 6.03406C7.73328 6.02465 7.73328 5.93062 7.73328 5.92122C7.73328 5.91182 7.73328 5.81778 7.73328 5.80836C7.73328 5.79896 7.73328 5.70494 7.73328 5.69554C7.73328 5.68614 7.73328 5.5921 7.73328 5.5827C7.73328 5.5733 7.73328 5.47927 7.73328 5.46987C7.73328 5.46046 7.73328 5.36645 7.73328 5.35705C7.73328 5.34765 7.73328 5.25362 7.73328 5.24422C7.73328 5.23482 7.73328 5.14081 7.73328 5.1314L5.73328 5.1314C5.73328 5.1408 5.73328 5.23482 5.73328 5.24422C5.73328 5.25362 5.73328 5.34764 5.73328 5.35705C5.73328 5.36646 5.73328 5.46046 5.73328 5.46987C5.73328 5.47928 5.73328 5.5733 5.73328 5.5827C5.73328 5.5921 5.73328 5.68613 5.73328 5.69554C5.73328 5.70495 5.73328 5.79897 5.73328 5.80836C5.73328 5.81776 5.73328 5.9118 5.73328 5.92122C5.73328 5.93062 5.73328 6.02466 5.73328 6.03406C5.73328 6.04346 5.73328 6.1375 5.73328 6.14691C5.73328 6.15631 5.73328 6.25036 5.73328 6.25976C5.73328 6.26917 5.73328 6.3632 5.73328 6.37262C5.73328 6.38203 5.73328 6.47607 5.73328 6.48548C5.73328 6.49488 5.73328 6.58894 5.73328 6.59834C5.73328 6.60775 5.73328 6.7018 5.73328 6.71121C5.73328 6.72061 5.73328 6.81467 5.73328 6.82408C5.73328 6.83349 5.73328 6.92754 5.73328 6.93695C5.73328 6.94635 5.73328 7.04042 5.73328 7.04982C5.73328 7.05923 5.73328 7.1533 5.73328 7.1627C5.73328 7.17211 5.73328 7.26617 5.73328 7.27558C5.73328 7.28498 5.73328 7.37906 5.73328 7.38847C5.73328 7.39788 5.73328 7.49195 5.73328 7.50136C5.73328 7.51077 5.73328 7.60484 5.73328 7.61425C5.73328 7.62366 5.73328 7.71773 5.73328 7.72713C5.73328 7.73655 5.73328 7.83063 5.73328 7.84003C5.73328 7.84944 5.73328 7.94352 5.73328 7.95293C5.73328 7.96234 5.73328 8.05642 5.73328 8.06583C5.73328 8.07524 5.73328 8.16933 5.73328 8.17874C5.73328 8.18815 5.73328 8.28223 5.73328 8.29164C5.73328 8.30105 5.73328 8.39514 5.73328 8.40455C5.73328 8.41396 5.73328 8.50805 5.73328 8.51746C5.73328 8.52687 5.73328 8.62096 5.73328 8.63037C5.73328 8.63978 5.73328 8.73387 5.73328 8.74328C5.73328 8.75269 5.73328 8.84679 5.73328 8.8562C5.73328 8.86561 5.73328 8.95971 5.73328 8.96912C5.73328 8.97853 5.73328 9.07263 5.73328 9.08204C5.73328 9.09145 5.73328 9.18555 5.73328 9.19496C5.73328 9.20437 5.73328 9.29847 5.73328 9.30788C5.73328 9.31729 5.73328 9.4114 5.73328 9.42081C5.73328 9.43022 5.73328 9.52433 5.73328 9.53374C5.73328 9.54315 5.73328 9.63725 5.73328 9.64667C5.73328 9.65608 5.73328 9.75018 5.73328 9.7596C5.73328 9.76901 5.73328 9.86311 5.73328 9.87253C5.73328 9.88194 5.73328 9.97604 5.73328 9.98546C5.73328 9.99486 5.73328 10.089 5.73328 10.0984C5.73328 10.1078 5.73328 10.2019 5.73328 10.2113C5.73328 10.2207 5.73328 10.3148 5.73328 10.3243C5.73328 10.3337 5.73328 10.4278 5.73328 10.4372C5.73328 10.4466 5.73328 10.5407 5.73328 10.5501C5.73328 10.5596 5.73328 10.6537 5.73328 10.6631C5.73328 10.6725 5.73328 10.7666 5.73328 10.776C5.73328 10.7854 5.73328 10.8795 5.73328 10.889C5.73328 10.8984 5.73328 10.9925 5.73328 11.0019C5.73328 11.0113 5.73328 11.1054 5.73328 11.1148C5.73328 11.1242 5.73328 11.2184 5.73328 11.2278C5.73328 11.2372 5.73328 11.3313 5.73328 11.3407C5.73328 11.3502 5.73328 11.4443 5.73328 11.4537C5.73328 11.4631 5.73328 11.5572 5.73328 11.5666C5.73328 11.5761 5.73328 11.6702 5.73328 11.6796C5.73328 11.689 5.73328 11.7831 5.73328 11.7925C5.73328 11.8019 5.73328 11.8961 5.73328 11.9055C5.73328 11.9149 5.73328 12.009 5.73328 12.0184C5.73328 12.0278 5.73328 12.122 5.73328 12.1314C5.73328 12.1408 5.73328 12.2349 5.73328 12.2443C5.73328 12.2537 5.73328 12.3478 5.73328 12.3573C5.73328 12.3667 5.73328 12.4608 5.73328 12.4702C5.73328 12.4796 5.73328 12.5737 5.73328 12.5832C5.73328 12.5926 5.73328 12.6867 5.73328 12.6961C5.73328 12.7055 5.73328 12.7996 5.73328 12.8091C5.73328 12.8185 5.73328 12.9126 5.73328 12.922C5.73328 12.9314 5.73328 13.0255 5.73328 13.0349C5.73328 13.0443 5.73328 13.1385 5.73328 13.1479C5.73328 13.1573 5.73328 13.2514 5.73328 13.2608C5.73328 13.2703 5.73328 13.3644 5.73328 13.3738C5.73328 13.3832 5.73328 13.4773 5.73328 13.4867C5.73328 13.4962 5.73328 13.5903 5.73328 13.5997C5.73328 13.6091 5.73328 13.7032 5.73328 13.7126C5.73328 13.722 5.73328 13.8162 5.73328 13.8256C5.73328 13.835 5.73328 13.9291 5.73328 13.9385C5.73328 13.9479 5.73328 14.042 5.73328 14.0514C5.73328 14.0608 5.73328 14.155 5.73328 14.1644C5.73328 14.1738 5.73328 14.2679 5.73328 14.2773C5.73328 14.2867 5.73328 14.3809 5.73328 14.3903C5.73328 14.3997 5.73328 14.4938 5.73328 14.5032C5.73328 14.5126 5.73328 14.6067 5.73328 14.6161C5.73328 14.6255 5.73328 14.7197 5.73328 14.7291C5.73328 14.7385 5.73328 14.8326 5.73328 14.842C5.73328 14.8514 5.73328 14.9455 5.73328 14.9549C5.73328 14.9643 5.73328 15.0585 5.73328 15.0679C5.73328 15.0773 5.73328 15.1714 5.73328 15.1808C5.73328 15.1902 5.73328 15.2843 5.73328 15.2937C5.73328 15.3031 5.73328 15.3972 5.73328 15.4066C5.73328 15.4161 5.73328 15.5102 5.73328 15.5196C5.73328 15.529 5.73328 15.6231 5.73328 15.6325C5.73328 15.6419 5.73328 15.736 5.73328 15.7454C5.73328 15.7548 5.73328 15.8489 5.73328 15.8583C5.73328 15.8677 5.73328 15.9618 5.73328 15.9712C5.73328 15.9806 5.73328 16.0748 5.73328 16.0842C5.73328 16.0937 5.73328 16.1877 5.73328 16.1971C5.73328 16.2065 5.73328 16.3006 5.73328 16.31C5.73328 16.3194 5.73328 16.4135 5.73328 16.4229C5.73328 16.4323 5.73328 16.5264 5.73328 16.5358C5.73328 16.5452 5.73328 16.6393 5.73328 16.6487C5.73328 16.6581 5.73328 16.7522 5.73328 16.7616C5.73328 16.771 5.73328 16.8651 5.73328 16.8745C5.73328 16.8839 5.73328 16.978 5.73328 16.9874C5.73328 16.9968 5.73328 17.0909 5.73328 17.1003C5.73328 17.1097 5.73328 17.2038 5.73328 17.2132C5.73328 17.2226 5.73328 17.3167 5.73328 17.3261C5.73328 17.3355 5.73328 17.4295 5.73328 17.4389C5.73328 17.4483 5.73328 17.5424 5.73328 17.5518C5.73328 17.5612 5.73328 17.6553 5.73328 17.6647C5.73328 17.6741 5.73328 17.7682 5.73328 17.7776C5.73328 17.787 5.73328 17.8811 5.73328 17.8905C5.73328 17.8999 5.73328 17.9939 5.73328 18.0033C5.73328 18.0127 5.73328 18.1068 5.73328 18.1162C5.73328 18.1256 5.73328 18.2196 5.73328 18.2291C5.73328 18.2385 5.73328 18.3325 5.73328 18.3419C5.73328 18.3513 5.73328 18.4454 5.73328 18.4548C5.73328 18.4642 5.73328 18.5582 5.73328 18.5676C5.73328 18.577 5.73328 18.6711 5.73328 18.6805C5.73328 18.6899 5.73328 18.7839 5.73328 18.7933C5.73328 18.8028 5.73328 18.8968 5.73328 18.9062C5.73328 18.9156 5.73328 19.0096 5.73328 19.019C5.73328 19.0284 5.73328 19.1224 5.73328 19.1318C5.73328 19.1412 5.73328 19.2353 5.73328 19.2447C5.73328 19.2541 5.73328 19.3481 5.73328 19.3575C5.73328 19.3669 5.73328 19.4609 5.73328 19.4703C5.73328 19.4797 5.73328 19.5737 5.73328 19.5831L7.73328 19.5831ZM7.73328 5.1314C7.73328 4.2033 7.99805 3.60181 8.36621 3.23272C8.73413 2.86391 9.33228 2.60001 10.2534 2.60001L10.2534 0.600006C8.94775 0.600006 7.78577 0.982773 6.95032 1.82016C6.11523 2.65725 5.73328 3.82146 5.73328 5.1314L7.73328 5.1314ZM10.2534 2.60001C10.2667 2.60001 10.3597 2.60001 10.373 2.60001C10.3864 2.60001 10.4792 2.60001 10.4926 2.60001C10.5059 2.60001 10.5989 2.60001 10.6122 2.60001C10.6255 2.60001 10.7186 2.60001 10.7318 2.60001C10.7451 2.60001 10.8381 2.60001 10.8514 2.60001C10.8647 2.60001 10.9578 2.60001 10.9709 2.60001C10.9843 2.60001 11.0774 2.60001 11.0907 2.60001C11.104 2.60001 11.197 2.60001 11.2103 2.60001C11.2236 2.60001 11.3167 2.60001 11.33 2.60001C11.3431 2.60001 11.4362 2.60001 11.4495 2.60001C11.4628 2.60001 11.5558 2.60001 11.5691 2.60001C11.5824 2.60001 11.6754 2.60001 11.6887 2.60001C11.702 2.60001 11.795 2.60001 11.8083 2.60001C11.8217 2.60001 11.9146 2.60001 11.9279 2.60001C11.9412 2.60001 12.0342 2.60001 12.0475 2.60001C12.0608 2.60001 12.1538 2.60001 12.1671 2.60001C12.1804 2.60001 12.2734 2.60001 12.2867 2.60001C12.3 2.60001 12.3929 2.60001 12.4062 2.60001C12.4196 2.60001 12.5126 2.60001 12.5259 2.60001C12.5392 2.60001 12.6322 2.60001 12.6455 2.60001C12.6588 2.60001 12.7518 2.60001 12.7651 2.60001C12.7784 2.60001 12.8713 2.60001 12.8846 2.60001C12.8979 2.60001 12.991 2.60001 13.0043 2.60001C13.0176 2.60001 13.1106 2.60001 13.1239 2.60001C13.1371 2.60001 13.2302 2.60001 13.2435 2.60001C13.2567 2.60001 13.3499 2.60001 13.363 2.60001C13.3763 2.60001 13.4694 2.60001 13.4827 2.60001C13.496 2.60001 13.589 2.60001 13.6023 2.60001C13.6156 2.60001 13.7086 2.60001 13.7219 2.60001C13.7352 2.60001 13.8282 2.60001 13.8416 2.60001C13.8547 2.60001 13.9479 2.60001 13.9611 2.60001C13.9744 2.60001 14.0675 2.60001 14.0807 2.60001C14.094 2.60001 14.1871 2.60001 14.2003 2.60001C14.2136 2.60001 14.3066 2.60001 14.3199 2.60001C14.3333 2.60001 14.4263 2.60001 14.4396 2.60001C14.4529 2.60001 14.5459 2.60001 14.5592 2.60001C14.5725 2.60001 14.6655 2.60001 14.6788 2.60001C14.6921 2.60001 14.7852 2.60001 14.7983 2.60001C14.8116 2.60001 14.9047 2.60001 14.918 2.60001C14.9313 2.60001 15.0243 2.60001 15.0376 2.60001C15.0509 2.60001 15.1439 2.60001 15.1572 2.60001C15.1705 2.60001 15.2635 2.60001 15.2769 2.60001C15.29 2.60001 15.3831 2.60001 15.3964 2.60001C15.4097 2.60001 15.5027 2.60001 15.516 2.60001C15.5293 2.60001 15.6223 2.60001 15.6356 2.60001C15.6489 2.60001 15.7419 2.60001 15.7552 2.60001C15.7686 2.60001 15.8615 2.60001 15.8748 2.60001C15.8881 2.60001 15.9811 2.60001 15.9944 2.60001C16.0077 2.60001 16.1007 2.60001 16.114 2.60001C16.1273 2.60001 16.2203 2.60001 16.2336 2.60001C16.2469 2.60001 16.3398 2.60001 16.3531 2.60001C16.3665 2.60001 16.4595 2.60001 16.4728 2.60001C16.486 2.60001 16.5791 2.60001 16.5924 2.60001C16.6056 2.60001 16.6987 2.60001 16.712 2.60001C16.7253 2.60001 16.8182 2.60001 16.8315 2.60001C16.8448 2.60001 16.9379 2.60001 16.9512 2.60001C16.9645 2.60001 17.0575 2.60001 17.0708 2.60001C17.0841 2.60001 17.1772 2.60001 17.1904 2.60001C17.2037 2.60001 17.2968 2.60001 17.3099 2.60001C17.3232 2.60001 17.4164 2.60001 17.4297 2.60001C17.443 2.60001 17.536 2.60001 17.5493 2.60001C17.5626 2.60001 17.6556 2.60001 17.6689 2.60001C17.6823 2.60001 17.7751 2.60001 17.7885 2.60001C17.8018 2.60001 17.8948 2.60001 17.9081 2.60001C17.9214 2.60001 18.0144 2.60001 18.0277 2.60001C18.041 2.60001 18.134 2.60001 18.1473 2.60001C18.1606 2.60001 18.2535 2.60001 18.2668 2.60001C18.2802 2.60001 18.3732 2.60001 18.3865 2.60001C18.3998 2.60001 18.4928 2.60001 18.5061 2.60001C18.5194 2.60001 18.6124 2.60001 18.6257 2.60001C18.639 2.60001 18.7321 2.60001 18.7452 2.60001C18.7585 2.60001 18.8516 2.60001 18.8649 2.60001C18.8782 2.60001 18.9712 2.60001 18.9845 2.60001C18.9978 2.60001 19.0908 2.60001 19.1041 2.60001C19.1174 2.60001 19.2104 2.60001 19.2238 2.60001C19.2369 2.60001 19.33 2.60001 19.3433 2.60001C19.3566 2.60001 19.4496 2.60001 19.4629 2.60001C19.4761 2.60001 19.5692 2.60001 19.5825 2.60001C19.5957 2.60001 19.6888 2.60001 19.7021 2.60001C19.7153 2.60001 19.8083 2.60001 19.8217 2.60001C19.835 2.60001 19.928 2.60001 19.9413 2.60001C19.9546 2.60001 20.0476 2.60001 20.0609 2.60001C20.0742 2.60001 20.1672 2.60001 20.1805 2.60001C20.1938 2.60001 20.2869 2.60001 20.3 2.60001C20.3134 2.60001 20.4065 2.60001 20.4197 2.60001C20.433 2.60001 20.5261 2.60001 20.5393 2.60001C20.5526 2.60001 20.6458 2.60001 20.6589 2.60001C20.6722 2.60001 20.7653 2.60001 20.7786 2.60001C20.7919 2.60001 20.8849 2.60001 20.8982 2.60001C20.9115 2.60001 21.0045 2.60001 21.0178 2.60001C21.0311 2.60001 21.1241 2.60001 21.1375 2.60001C21.1506 2.60001 21.2437 2.60001 21.257 2.60001C21.2703 2.60001 21.3633 2.60001 21.3766 2.60001C21.3899 2.60001 21.4829 2.60001 21.4962 2.60001C21.5095 2.60001 21.6025 2.60001 21.6158 2.60001C21.6292 2.60001 21.722 2.60001 21.7354 2.60001C21.7487 2.60001 21.8417 2.60001 21.855 2.60001C21.8683 2.60001 21.9613 2.60001 21.9746 2.60001C21.9879 2.60001 22.0809 2.60001 22.0942 2.60001C22.1075 2.60001 22.2004 2.60001 22.2137 2.60001C22.2271 2.60001 22.3201 2.60001 22.3334 2.60001C22.3467 2.60001 22.4397 2.60001 22.453 2.60001C22.4663 2.60001 22.5593 2.60001 22.5726 2.60001C22.5859 2.60001 22.679 2.60001 22.6921 2.60001C22.7054 2.60001 22.7985 2.60001 22.8118 2.60001C22.825 2.60001 22.9181 2.60001 22.9314 2.60001C22.9446 2.60001 23.0377 2.60001 23.051 2.60001C23.0643 2.60001 23.1573 2.60001 23.1707 2.60001C23.1838 2.60001 23.2769 2.60001 23.2902 2.60001C23.3035 2.60001 23.3965 2.60001 23.4098 2.60001C23.4231 2.60001 23.5162 2.60001 23.5294 2.60001C23.5427 2.60001 23.6357 2.60001 23.649 2.60001C23.6624 2.60001 23.7554 2.60001 23.7686 2.60001C23.7819 2.60001 23.875 2.60001 23.8883 2.60001C23.9016 2.60001 23.9946 2.60001 24.0079 2.60001C24.0212 2.60001 24.1143 2.60001 24.1274 2.60001C24.1407 2.60001 24.2338 2.60001 24.2471 2.60001C24.2604 2.60001 24.3534 2.60001 24.3667 2.60001C24.38 2.60001 24.473 2.60001 24.4863 2.60001C24.4996 2.60001 24.5927 2.60001 24.606 2.60001C24.6191 2.60001 24.7122 2.60001 24.7255 2.60001C24.7388 2.60001 24.8318 2.60001 24.8451 2.60001C24.8584 2.60001 24.9514 2.60001 24.9647 2.60001C24.978 2.60001 25.071 2.60001 25.0844 2.60001C25.0977 2.60001 25.1906 2.60001 25.2039 2.60001C25.2172 2.60001 25.3102 2.60001 25.3235 2.60001C25.3368 2.60001 25.4298 2.60001 25.4431 2.60001C25.4564 2.60001 25.5494 2.60001 25.5627 2.60001C25.576 2.60001 25.6689 2.60001 25.6823 2.60001C25.6956 2.60001 25.7886 2.60001 25.8019 2.60001C25.8152 2.60001 25.9082 2.60001 25.9215 2.60001C25.9347 2.60001 26.0278 2.60001 26.0411 2.60001C26.0543 2.60001 26.1473 2.60001 26.1606 2.60001C26.174 2.60001 26.267 2.60001 26.2803 2.60001C26.2936 2.60001 26.3866 2.60001 26.3999 2.60001C26.4132 2.60001 26.5062 2.60001 26.5195 2.60001C26.5328 2.60001 26.6259 2.60001 26.639 2.60001C26.6523 2.60001 26.7455 2.60001 26.7587 2.60001C26.772 2.60001 26.8651 2.60001 26.8783 2.60001C26.8916 2.60001 26.9847 2.60001 26.9979 2.60001C27.0112 2.60001 27.1042 2.60001 27.1176 2.60001C27.1309 2.60001 27.2239 2.60001 27.2372 2.60001C27.2505 2.60001 27.3435 2.60001 27.3568 2.60001C27.3701 2.60001 27.4631 2.60001 27.4764 2.60001C27.4897 2.60001 27.5826 2.60001 27.5959 2.60001C27.6093 2.60001 27.7023 2.60001 27.7156 2.60001C27.7289 2.60001 27.8219 2.60001 27.8352 2.60001C27.8485 2.60001 27.9415 2.60001 27.9548 2.60001C27.9681 2.60001 28.061 2.60001 28.0743 2.60001C28.0876 2.60001 28.1807 2.60001 28.194 2.60001C28.2073 2.60001 28.3003 2.60001 28.3136 2.60001C28.3269 2.60001 28.4199 2.60001 28.4332 2.60001C28.4465 2.60001 28.5396 2.60001 28.5527 2.60001C28.566 2.60001 28.6591 2.60001 28.6724 2.60001C28.6857 2.60001 28.7787 2.60001 28.792 2.60001C28.8053 2.60001 28.8983 2.60001 28.9116 2.60001C28.9249 2.60001 29.0179 2.60001 29.0312 2.60001C29.0446 2.60001 29.1375 2.60001 29.1508 2.60001C29.1639 2.60001 29.2571 2.60001 29.2704 2.60001C29.2836 2.60001 29.3767 2.60001 29.39 2.60001C29.4032 2.60001 29.4963 2.60001 29.5096 2.60001C29.5229 2.60001 29.6158 2.60001 29.6292 2.60001C29.6425 2.60001 29.7355 2.60001 29.7488 2.60001C29.7621 2.60001 29.8552 2.60001 29.8684 2.60001C29.8817 2.60001 29.9749 2.60001 29.988 2.60001C30.0013 2.60001 30.0944 2.60001 30.1075 2.60001C30.1208 2.60001 30.214 2.60001 30.2273 2.60001C30.2406 2.60001 30.3336 2.60001 30.3469 2.60001C30.3602 2.60001 30.4532 2.60001 30.4666 2.60001C30.4797 2.60001 30.5728 2.60001 30.5861 2.60001L30.6658 0.600006C30.6525 0.600006 30.5594 0.600006 30.5461 0.600006C30.5328 0.600006 30.4399 0.600006 30.4266 0.600006C30.4133 0.600006 30.3203 0.600006 30.307 0.600006C30.2937 0.600006 30.2007 0.600006 30.1874 0.600006C30.1742 0.600006 30.0811 0.600006 30.0677 0.600006C30.0546 0.600006 29.9615 0.600006 29.9482 0.600006C29.9349 0.600006 29.8419 0.600006 29.8286 0.600006C29.8153 0.600006 29.7223 0.600006 29.709 0.600006C29.6957 0.600006 29.6027 0.600006 29.5894 0.600006C29.576 0.600006 29.483 0.600006 29.4698 0.600006C29.4565 0.600006 29.3634 0.600006 29.3502 0.600006C29.3369 0.600006 29.2438 0.600006 29.2306 0.600006C29.2173 0.600006 29.1241 0.600006 29.1108 0.600006C29.0977 0.600006 29.0046 0.600006 28.9913 0.600006C28.978 0.600006 28.885 0.600006 28.8717 0.600006C28.8584 0.600006 28.7654 0.600006 28.7521 0.600006C28.7388 0.600006 28.6458 0.600006 28.6324 0.600006C28.6191 0.600006 28.5262 0.600006 28.5129 0.600006C28.4996 0.600006 28.4066 0.600006 28.3933 0.600006C28.38 0.600006 28.287 0.600006 28.2737 0.600006C28.2604 0.600006 28.1674 0.600006 28.1541 0.600006C28.1407 0.600006 28.0479 0.600006 28.0345 0.600006C28.0212 0.600006 27.9282 0.600006 27.9149 0.600006C27.9016 0.600006 27.8086 0.600006 27.7953 0.600006C27.782 0.600006 27.689 0.600006 27.6757 0.600006C27.6624 0.600006 27.5693 0.600006 27.5562 0.600006C27.5428 0.600006 27.4498 0.600006 27.4365 0.600006C27.4232 0.600006 27.3302 0.600006 27.3169 0.600006C27.3036 0.600006 27.2106 0.600006 27.1973 0.600006C27.184 0.600006 27.0909 0.600006 27.0776 0.600006C27.0645 0.600006 26.9714 0.600006 26.9581 0.600006C26.9449 0.600006 26.8518 0.600006 26.8385 0.600006C26.8253 0.600006 26.7322 0.600006 26.7189 0.600006C26.7056 0.600006 26.6125 0.600006 26.5992 0.600006C26.5859 0.600006 26.493 0.600006 26.4797 0.600006C26.4664 0.600006 26.3734 0.600006 26.3601 0.600006C26.3468 0.600006 26.2537 0.600006 26.2405 0.600006C26.2272 0.600006 26.1342 0.600006 26.1208 0.600006C26.1075 0.600006 26.0145 0.600006 26.0013 0.600006C25.988 0.600006 25.8949 0.600006 25.8816 0.600006C25.8683 0.600006 25.7753 0.600006 25.762 0.600006C25.7487 0.600006 25.6556 0.600006 25.6425 0.600006C25.6292 0.600006 25.5361 0.600006 25.5228 0.600006C25.5095 0.600006 25.4165 0.600006 25.4032 0.600006C25.3899 0.600006 25.2969 0.600006 25.2836 0.600006C25.2703 0.600006 25.1772 0.600006 25.1639 0.600006C25.1506 0.600006 25.0577 0.600006 25.0444 0.600006C25.0311 0.600006 24.9381 0.600006 24.9248 0.600006C24.9115 0.600006 24.8185 0.600006 24.8052 0.600006C24.7919 0.600006 24.6989 0.600006 24.6855 0.600006C24.6722 0.600006 24.5793 0.600006 24.566 0.600006C24.5527 0.600006 24.4597 0.600006 24.4464 0.600006C24.4331 0.600006 24.3401 0.600006 24.3268 0.600006C24.3135 0.600006 24.2205 0.600006 24.2072 0.600006C24.1938 0.600006 24.101 0.600006 24.0876 0.600006C24.0743 0.600006 23.9813 0.600006 23.968 0.600006C23.9547 0.600006 23.8617 0.600006 23.8484 0.600006C23.8352 0.600006 23.7421 0.600006 23.7288 0.600006C23.7156 0.600006 23.6224 0.600006 23.6093 0.600006C23.5959 0.600006 23.5029 0.600006 23.4896 0.600006C23.4763 0.600006 23.3833 0.600006 23.37 0.600006C23.3567 0.600006 23.2637 0.600006 23.2504 0.600006C23.2371 0.600006 23.144 0.600006 23.1307 0.600006C23.1176 0.600006 23.0244 0.600006 23.0112 0.600006C22.9979 0.600006 22.9048 0.600006 22.8916 0.600006C22.8783 0.600006 22.7852 0.600006 22.7719 0.600006C22.7585 0.600006 22.6656 0.600006 22.6523 0.600006C22.639 0.600006 22.546 0.600006 22.5327 0.600006C22.5194 0.600006 22.4264 0.600006 22.4131 0.600006C22.3998 0.600006 22.3068 0.600006 22.2935 0.600006C22.2802 0.600006 22.1873 0.600006 22.174 0.600006C22.1606 0.600006 22.0676 0.600006 22.0543 0.600006C22.041 0.600006 21.948 0.600006 21.9347 0.600006C21.9214 0.600006 21.8284 0.600006 21.8151 0.600006C21.8018 0.600006 21.7087 0.600006 21.6956 0.600006C21.6823 0.600006 21.5892 0.600006 21.5759 0.600006C21.5626 0.600006 21.4696 0.600006 21.4563 0.600006C21.443 0.600006 21.35 0.600006 21.3367 0.600006C21.3234 0.600006 21.2303 0.600006 21.217 0.600006C21.2039 0.600006 21.1108 0.600006 21.0975 0.600006C21.0842 0.600006 20.9912 0.600006 20.9779 0.600006C20.9646 0.600006 20.8716 0.600006 20.8583 0.600006C20.845 0.600006 20.752 0.600006 20.7386 0.600006C20.7253 0.600006 20.6324 0.600006 20.6191 0.600006C20.606 0.600006 20.5128 0.600006 20.4995 0.600006C20.4863 0.600006 20.3932 0.600006 20.3799 0.600006C20.3667 0.600006 20.2736 0.600006 20.2603 0.600006C20.2469 0.600006 20.1541 0.600006 20.1407 0.600006C20.1274 0.600006 20.0344 0.600006 20.0211 0.600006C20.0078 0.600006 19.9148 0.600006 19.9015 0.600006C19.8882 0.600006 19.795 0.600006 19.7819 0.600006C19.7686 0.600006 19.6755 0.600006 19.6624 0.600006C19.649 0.600006 19.5559 0.600006 19.5427 0.600006C19.5294 0.600006 19.4363 0.600006 19.423 0.600006C19.4097 0.600006 19.3167 0.600006 19.3033 0.600006C19.29 0.600006 19.1971 0.600006 19.1838 0.600006C19.1705 0.600006 19.0775 0.600006 19.0642 0.600006C19.0509 0.600006 18.9579 0.600006 18.9446 0.600006C18.9313 0.600006 18.8383 0.600006 18.825 0.600006C18.8116 0.600006 18.7188 0.600006 18.7054 0.600006C18.6921 0.600006 18.5991 0.600006 18.5858 0.600006C18.5725 0.600006 18.4795 0.600006 18.4662 0.600006C18.4529 0.600006 18.3599 0.600006 18.3466 0.600006C18.3333 0.600006 18.2402 0.600006 18.2271 0.600006C18.2137 0.600006 18.1207 0.600006 18.1074 0.600006C18.0941 0.600006 18.0011 0.600006 17.9878 0.600006C17.9745 0.600006 17.8815 0.600006 17.8682 0.600006C17.8549 0.600006 17.7618 0.600006 17.7485 0.600006C17.7354 0.600006 17.6423 0.600006 17.629 0.600006C17.6157 0.600006 17.5227 0.600006 17.5094 0.600006C17.4961 0.600006 17.4031 0.600006 17.3898 0.600006C17.3766 0.600006 17.2834 0.600006 17.2701 0.600006C17.257 0.600006 17.1639 0.600006 17.1506 0.600006C17.1373 0.600006 17.0443 0.600006 17.031 0.600006C17.0177 0.600006 16.9247 0.600006 16.9114 0.600006C16.8981 0.600006 16.8051 0.600006 16.7917 0.600006C16.7784 0.600006 16.6854 0.600006 16.6722 0.600006C16.6589 0.600006 16.5658 0.600006 16.5526 0.600006C16.5393 0.600006 16.4462 0.600006 16.433 0.600006C16.4197 0.600006 16.3265 0.600006 16.3134 0.600006C16.3 0.600006 16.207 0.600006 16.1937 0.600006C16.1804 0.600006 16.0874 0.600006 16.0741 0.600006C16.0608 0.600006 15.9678 0.600006 15.9545 0.600006C15.9412 0.600006 15.8481 0.600006 15.8348 0.600006C15.8217 0.600006 15.7286 0.600006 15.7153 0.600006C15.702 0.600006 15.609 0.600006 15.5957 0.600006C15.5824 0.600006 15.4894 0.600006 15.4761 0.600006C15.4628 0.600006 15.3698 0.600006 15.3564 0.600006C15.3431 0.600006 15.2502 0.600006 15.2369 0.600006C15.2236 0.600006 15.1306 0.600006 15.1173 0.600006C15.104 0.600006 15.011 0.600006 14.9977 0.600006C14.9844 0.600006 14.8914 0.600006 14.8781 0.600006C14.8647 0.600006 14.7719 0.600006 14.7585 0.600006C14.7452 0.600006 14.6522 0.600006 14.6389 0.600006C14.6256 0.600006 14.5326 0.600006 14.5193 0.600006C14.506 0.600006 14.413 0.600006 14.3997 0.600006C14.3864 0.600006 14.2935 0.600006 14.2802 0.600006C14.2668 0.600006 14.1738 0.600006 14.1605 0.600006C14.1473 0.600006 14.0542 0.600006 14.0409 0.600006C14.0277 0.600006 13.9346 0.600006 13.9213 0.600006C13.908 0.600006 13.8149 0.600006 13.8016 0.600006C13.7885 0.600006 13.6954 0.600006 13.6821 0.600006C13.6688 0.600006 13.5758 0.600006 13.5625 0.600006C13.5492 0.600006 13.4561 0.600006 13.4429 0.600006C13.4296 0.600006 13.3365 0.600006 13.3232 0.600006C13.3099 0.600006 13.2169 0.600006 13.2037 0.600006C13.1904 0.600006 13.0973 0.600006 13.084 0.600006C13.0707 0.600006 12.9777 0.600006 12.9644 0.600006C12.951 0.600006 12.8582 0.600006 12.8448 0.600006C12.8315 0.600006 12.7385 0.600006 12.7252 0.600006C12.7119 0.600006 12.6189 0.600006 12.6056 0.600006C12.5923 0.600006 12.4993 0.600006 12.486 0.600006C12.4727 0.600006 12.3796 0.600006 12.3665 0.600006C12.3531 0.600006 12.2601 0.600006 12.2468 0.600006C12.2335 0.600006 12.1405 0.600006 12.1272 0.600006C12.1139 0.600006 12.0209 0.600006 12.0076 0.600006C11.9943 0.600006 11.9012 0.600006 11.8879 0.600006C11.8748 0.600006 11.7817 0.600006 11.7684 0.600006C11.7551 0.600006 11.6621 0.600006 11.6488 0.600006C11.6355 0.600006 11.5425 0.600006 11.5292 0.600006C11.5159 0.600006 11.4229 0.600006 11.4095 0.600006C11.3962 0.600006 11.3033 0.600006 11.29 0.600006C11.2767 0.600006 11.1837 0.600006 11.1704 0.600006C11.1571 0.600006 11.0641 0.600006 11.0508 0.600006C11.0376 0.600006 10.9445 0.600006 10.9312 0.600006C10.918 0.600006 10.825 0.600006 10.8116 0.600006C10.7983 0.600006 10.7053 0.600006 10.692 0.600006C10.6787 0.600006 10.5857 0.600006 10.5724 0.600006C10.5591 0.600006 10.4661 0.600006 10.4528 0.600006C10.4395 0.600006 10.2667 0.600006 10.2534 0.600006L10.2534 2.60001ZM30.5861 2.60001C31.5072 2.60001 32.1851 2.86391 32.553 3.23272C32.9211 3.60182 33.1859 4.2033 33.1859 5.1314L35.1859 5.1314C35.1859 3.82146 34.804 2.65725 33.9689 1.82016C33.1334 0.982773 31.9714 0.600006 30.6658 0.600006L30.5861 2.60001ZM33.1859 5.1314C33.1859 5.15027 33.1859 5.22575 33.1859 5.24462C33.1859 5.26349 33.1859 5.33896 33.1859 5.35783C33.1859 5.3767 33.1859 5.45217 33.1859 5.47104C33.1859 5.48991 33.1859 5.56538 33.1859 5.58424C33.1859 5.60311 33.1859 5.67858 33.1859 5.69745C33.1859 5.71632 33.1859 5.79179 33.1859 5.81066C33.1859 5.82953 33.1859 5.90499 33.1859 5.92386C33.1859 5.94273 33.1859 6.0182 33.1859 6.03707C33.1859 6.05593 33.1859 6.1314 33.1859 6.15027C33.1859 6.16914 33.1859 6.2446 33.1859 6.26347C33.1859 6.28234 33.1859 6.35781 33.1859 6.37667C33.1859 6.39554 33.1859 6.47101 33.1859 6.48987C33.1859 6.50874 33.1859 6.58421 33.1859 6.60307C33.1859 6.62194 33.1859 6.6974 33.1859 6.71627C33.1859 6.73514 33.1859 6.8106 33.1859 6.82947C33.1859 6.84833 33.1859 6.9238 33.1859 6.94267C33.1859 6.96154 33.1859 7.037 33.1859 7.05585C33.1859 7.07471 33.1859 7.15018 33.1859 7.16906C33.1859 7.18793 33.1859 7.26338 33.1859 7.28225C33.1859 7.30111 33.1859 7.37658 33.1859 7.39544C33.1859 7.4143 33.1859 7.48977 33.1859 7.50864C33.1859 7.52751 33.1859 7.60296 33.1859 7.62183C33.1859 7.6407 33.1859 7.71615 33.1859 7.73502C33.1859 7.75389 33.1859 7.82934 33.1859 7.84821C33.1859 7.86708 33.1859 7.94253 33.1859 7.9614C33.1859 7.98027 33.1859 8.05572 33.1859 8.07458C33.1859 8.09344 33.1859 8.16891 33.1859 8.18777C33.1859 8.20663 33.1859 8.28209 33.1859 8.30096C33.1859 8.31982 33.1859 8.39528 33.1859 8.41414C33.1859 8.433 33.1859 8.50846 33.1859 8.52733C33.1859 8.54619 33.1859 8.62165 33.1859 8.64051C33.1859 8.65938 33.1859 8.73483 33.1859 8.7537C33.1859 8.77256 33.1859 8.84801 33.1859 8.86688C33.1859 8.88574 33.1859 8.9612 33.1859 8.98006C33.1859 8.99892 33.1859 9.07438 33.1859 9.09324C33.1859 9.1121 33.1859 9.18756 33.1859 9.20642C33.1859 9.22528 33.1859 9.30074 33.1859 9.3196C33.1859 9.33846 33.1859 9.41392 33.1859 9.43278C33.1859 9.45164 33.1859 9.52708 33.1859 9.54596C33.1859 9.56482 33.1859 9.64027 33.1859 9.65913C33.1859 9.678 33.1859 9.75345 33.1859 9.77231C33.1859 9.79117 33.1859 9.86662 33.1859 9.88549C33.1859 9.90436 33.1859 9.9798 33.1859 9.99866C33.1859 10.0176 33.1859 10.093 33.1859 10.1118C33.1859 10.1307 33.1859 10.2061 33.1859 10.225C33.1859 10.2438 33.1859 10.3193 33.1859 10.3382C33.1859 10.357 33.1859 10.4325 33.1859 10.4513C33.1859 10.4702 33.1859 10.5457 33.1859 10.5645C33.1859 10.5834 33.1859 10.6588 33.1859 10.6777C33.1859 10.6965 33.1859 10.772 33.1859 10.7909C33.1859 10.8098 33.1859 10.8852 33.1859 10.904C33.1859 10.9229 33.1859 10.9983 33.1859 11.0172C33.1859 11.036 33.1859 11.1115 33.1859 11.1304C33.1859 11.1492 33.1859 11.2247 33.1859 11.2435C33.1859 11.2624 33.1859 11.3378 33.1859 11.3567C33.1859 11.3755 33.1859 11.451 33.1859 11.4699C33.1859 11.4887 33.1859 11.5642 33.1859 11.583C33.1859 11.6019 33.1859 11.6773 33.1859 11.6962C33.1859 11.715 33.1859 11.7905 33.1859 11.8094C33.1859 11.8282 33.1859 11.9037 33.1859 11.9225C33.1859 11.9414 33.1859 12.0168 33.1859 12.0357C33.1859 12.0545 33.1859 12.13 33.1859 12.1489C33.1859 12.1678 33.1859 12.2432 33.1859 12.262C33.1859 12.2809 33.1859 12.3563 33.1859 12.3752C33.1859 12.394 33.1859 12.4695 33.1859 12.4883C33.1859 12.5072 33.1859 12.5826 33.1859 12.6015C33.1859 12.6203 33.1859 12.6958 33.1859 12.7147C33.1859 12.7335 33.1859 12.809 33.1859 12.8278C33.1859 12.8467 33.1859 12.9221 33.1859 12.941C33.1859 12.9598 33.1859 13.0353 33.1859 13.0542C33.1859 13.0731 33.1859 13.1484 33.1859 13.1673C33.1859 13.1861 33.1859 13.2616 33.1859 13.2805C33.1859 13.2994 33.1859 13.3748 33.1859 13.3936C33.1859 13.4125 33.1859 13.4879 33.1859 13.5068C33.1859 13.5256 33.1859 13.6011 33.1859 13.6199C33.1859 13.6388 33.1859 13.7142 33.1859 13.7331C33.1859 13.7519 33.1859 13.8274 33.1859 13.8463C33.1859 13.8652 33.1859 13.9406 33.1859 13.9594C33.1859 13.9782 33.1859 14.0537 33.1859 14.0726C33.1859 14.0915 33.1859 14.1669 33.1859 14.1857C33.1859 14.2046 33.1859 14.28 33.1859 14.2989C33.1859 14.3177 33.1859 14.3932 33.1859 14.412C33.1859 14.4309 33.1859 14.5063 33.1859 14.5252C33.1859 14.544 33.1859 14.6195 33.1859 14.6383C33.1859 14.6572 33.1859 14.7326 33.1859 14.7515C33.1859 14.7703 33.1859 14.8458 33.1859 14.8646C33.1859 14.8835 33.1859 14.9589 33.1859 14.9778C33.1859 14.9966 33.1859 15.0721 33.1859 15.091C33.1859 15.1099 33.1859 15.1852 33.1859 15.2041C33.1859 15.2229 33.1859 15.2984 33.1859 15.3173C33.1859 15.3362 33.1859 15.4115 33.1859 15.4304C33.1859 15.4492 33.1859 15.5247 33.1859 15.5436C33.1859 15.5625 33.1859 15.6378 33.1859 15.6567C33.1859 15.6755 33.1859 15.751 33.1859 15.7699C33.1859 15.7888 33.1859 15.8642 33.1859 15.883C33.1859 15.9018 33.1859 15.9773 33.1859 15.9962C33.1859 16.0151 33.1859 16.0905 33.1859 16.1093C33.1859 16.1281 33.1859 16.2036 33.1859 16.2225C33.1859 16.2414 33.1859 16.3167 33.1859 16.3356C33.1859 16.3544 33.1859 16.4299 33.1859 16.4488C33.1859 16.4677 33.1859 16.543 33.1859 16.5619C33.1859 16.5807 33.1859 16.6562 33.1859 16.6751C33.1859 16.694 33.1859 16.7693 33.1859 16.7882C33.1859 16.807 33.1859 16.8825 33.1859 16.9014C33.1859 16.9203 33.1859 16.9956 33.1859 17.0145C33.1859 17.0333 33.1859 17.1088 33.1859 17.1276C33.1859 17.1465 33.1859 17.2219 33.1859 17.2408C33.1859 17.2596 33.1859 17.3351 33.1859 17.3539C33.1859 17.3728 33.1859 17.4482 33.1859 17.4671C33.1859 17.4859 33.1859 17.5614 33.1859 17.5802C33.1859 17.5991 33.1859 17.6745 33.1859 17.6934C33.1859 17.7122 33.1859 17.7877 33.1859 17.8065C33.1859 17.8254 33.1859 17.9008 33.1859 17.9197C33.1859 17.9386 33.1859 18.014 33.1859 18.0328C33.1859 18.0517 33.1859 18.1271 33.1859 18.146C33.1859 18.1649 33.1859 18.2403 33.1859 18.2591C33.1859 18.2779 33.1859 18.3534 33.1859 18.3723C33.1859 18.3912 33.1859 18.4666 33.1859 18.4854C33.1859 18.5042 33.1859 18.5797 33.1859 18.5986C33.1859 18.6175 33.1859 18.6928 33.1859 18.7117C33.1859 18.7305 33.1859 18.806 33.1859 18.8248C33.1859 18.8437 33.1859 18.9191 33.1859 18.938C33.1859 18.9568 33.1859 19.0323 33.1859 19.0511C33.1859 19.07 33.1859 19.1454 33.1859 19.1643C33.1859 19.1831 33.1859 19.2586 33.1859 19.2774C33.1859 19.2963 33.1859 19.3717 33.1859 19.3906C33.1859 19.4095 33.1859 19.4849 33.1859 19.5037C33.1859 19.5226 33.1859 19.598 33.1859 19.6169C33.1859 19.6358 33.1859 19.7112 33.1859 19.73C33.1859 19.7488 33.1859 19.8243 33.1859 19.8432C33.1859 19.8621 33.1859 19.9374 33.1859 19.9563C33.1859 19.9751 33.1859 20.0506 33.1859 20.0695C33.1859 20.0884 33.1859 20.1637 33.1859 20.1826C33.1859 20.2014 33.1859 20.2769 33.1859 20.2957C33.1859 20.3146 33.1859 20.39 33.1859 20.4089C33.1859 20.4277 33.1859 20.5032 33.1859 20.522C33.1859 20.5409 33.1859 20.6163 33.1859 20.6352C33.1859 20.654 33.1859 20.7295 33.1859 20.7483C33.1859 20.7672 33.1859 20.8426 33.1859 20.8615C33.1859 20.8804 33.1859 20.9558 33.1859 20.9746C33.1859 20.9935 33.1859 21.0689 33.1859 21.0878C33.1859 21.1067 33.1859 21.1821 33.1859 21.2009C33.1859 21.2197 33.1859 21.2952 33.1859 21.3141C33.1859 21.333 33.1859 21.4083 33.1859 21.4272C33.1859 21.446 33.1859 21.5215 33.1859 21.5404C33.1859 21.5593 33.1859 21.6346 33.1859 21.6535C33.1859 21.6723 33.1859 21.7478 33.1859 21.7666C33.1859 21.7855 33.1859 21.8609 33.1859 21.8798C33.1859 21.8986 33.1859 21.9741 33.1859 21.9929C33.1859 22.0118 33.1859 22.0872 33.1859 22.1061C33.1859 22.1249 33.1859 22.2004 33.1859 22.2192C33.1859 22.2381 33.1859 22.3135 33.1859 22.3324C33.1859 22.3512 33.1859 22.4267 33.1859 22.4455C33.1859 22.4644 33.1859 22.5398 33.1859 22.5587C33.1859 22.5775 33.1859 22.653 33.1859 22.6718C33.1859 22.6907 33.1859 22.7661 33.1859 22.785C33.1859 22.8038 33.1859 22.8793 33.1859 22.8981C33.1859 22.917 33.1859 22.9924 33.1859 23.0113C33.1859 23.0301 33.1859 23.1056 33.1859 23.1244C33.1859 23.1433 33.1859 23.2187 33.1859 23.2376C33.1859 23.2564 33.1859 23.3319 33.1859 23.3507C33.1859 23.3696 33.1859 23.445 33.1859 23.4639C33.1859 23.4827 33.1859 23.5582 33.1859 23.577C33.1859 23.5959 33.1859 23.6713 33.1859 23.6902C33.1859 23.709 33.1859 23.7845 33.1859 23.8033C33.1859 23.8222 33.1859 23.8976 33.1859 23.9165C33.1859 23.9353 33.1859 24.0108 33.1859 24.0296C33.1859 24.0485 33.1859 24.1239 33.1859 24.1428C33.1859 24.1616 33.1859 24.2371 33.1859 24.2559C33.1859 24.2748 33.1859 24.3502 33.1859 24.3691C33.1859 24.3879 33.1859 24.4634 33.1859 24.4822C33.1859 24.5011 33.1859 24.5765 33.1859 24.5954C33.1859 24.6142 33.1859 24.6897 33.1859 24.7086C33.1859 24.7275 33.1859 24.8028 33.1859 24.8217C33.1859 24.8405 33.1859 24.916 33.1859 24.9349C33.1859 24.9538 33.1859 25.0292 33.1859 25.048C33.1859 25.0669 33.1859 25.1423 33.1859 25.1612C33.1859 25.1801 33.1859 25.2555 33.1859 25.2743C33.1859 25.2932 33.1859 25.3686 33.1859 25.3875C33.1859 25.4063 33.1859 25.4818 33.1859 25.5006C33.1859 25.5195 33.1859 25.5949 33.1859 25.6138C33.1859 25.6326 33.1859 25.7081 33.1859 25.727C33.1859 25.7459 33.1859 25.8212 33.1859 25.8401C33.1859 25.8589 33.1859 25.9344 33.1859 25.9533C33.1859 25.9722 33.1859 26.0476 33.1859 26.0664C33.1859 26.0853 33.1859 26.1607 33.1859 26.1796C33.1859 26.1984 33.1859 26.2739 33.1859 26.2927C33.1859 26.3116 33.1859 26.387 33.1859 26.4059C33.1859 26.4247 33.1859 26.5002 33.1859 26.5191C33.1859 26.538 33.1859 26.6134 33.1859 26.6322C33.1859 26.6511 33.1859 26.7265 33.1859 26.7454C33.1859 26.7642 33.1859 26.8397 33.1859 26.8585C33.1859 26.8774 33.1859 26.9529 33.1859 26.9717C33.1859 26.9906 33.1859 27.066 33.1859 27.0849C33.1859 27.1037 33.1859 27.1792 33.1859 27.198C33.1859 27.2169 33.1859 27.2923 33.1859 27.3112C33.1859 27.33 33.1859 27.4055 33.1859 27.4244C33.1859 27.4432 33.1859 27.5187 33.1859 27.5375C33.1859 27.5564 33.1859 27.6318 33.1859 27.6507C33.1859 27.6695 33.1859 27.745 33.1859 27.7639C33.1859 27.7828 33.1859 27.8582 33.1859 27.877C33.1859 27.8959 33.1859 27.9713 33.1859 27.9902C33.1859 28.009 33.1859 28.0845 33.1859 28.1034C33.1859 28.1222 33.1859 28.1977 33.1859 28.2165C33.1859 28.2354 33.1859 28.3108 33.1859 28.3297C33.1859 28.3486 33.1859 28.424 33.1859 28.4429C33.1859 28.4617 33.1859 28.5372 33.1859 28.556C33.1859 28.5749 33.1859 28.6504 33.1859 28.6692C33.1859 28.6881 33.1859 28.7635 33.1859 28.7824C33.1859 28.8012 33.1859 28.8767 33.1859 28.8956C33.1859 28.9145 33.1859 28.9899 33.1859 29.0087C33.1859 29.0276 33.1859 29.103 33.1859 29.1219C33.1859 29.1408 33.1859 29.2162 33.1859 29.2351C33.1859 29.2539 33.1859 29.3294 33.1859 29.3483C33.1859 29.3672 33.1859 29.4426 33.1859 29.4614C33.1859 29.4803 33.1859 29.5557 33.1859 29.5746C33.1859 29.5935 33.1859 29.6689 33.1859 29.6878C33.1859 29.7066 33.1859 29.7821 33.1859 29.801C33.1859 29.8198 33.1859 29.8953 33.1859 29.9141C33.1859 29.933 33.1859 30.0085 33.1859 30.0273C33.1859 30.0462 33.1859 30.1216 33.1859 30.1405C33.1859 30.1594 33.1859 30.2348 33.1859 30.2537C33.1859 30.2725 33.1859 30.348 33.1859 30.3669C33.1859 30.3857 33.1859 30.4612 33.1859 30.48C33.1859 30.4989 33.1859 30.5744 33.1859 30.5932C33.1859 30.6121 33.1859 30.6876 33.1859 30.7064C33.1859 30.7253 33.1859 30.8007 33.1859 30.8196C33.1859 30.8385 33.1859 30.9139 33.1859 30.9328C33.1859 30.9516 33.1859 31.0271 33.1859 31.046C33.1859 31.0648 33.1859 31.1403 33.1859 31.1592C33.1859 31.178 33.1859 31.2535 33.1859 31.2724C33.1859 31.2913 33.1859 31.3667 33.1859 31.3855C33.1859 31.4044 33.1859 31.4799 33.1859 31.4987C33.1859 31.5176 33.1859 31.5931 33.1859 31.6119C33.1859 31.6308 33.1859 31.7062 33.1859 31.7251C33.1859 31.744 33.1859 31.8194 33.1859 31.8383C33.1859 31.8572 33.1859 31.9326 33.1859 31.9515C33.1859 31.9704 33.1859 32.0458 33.1859 32.0647C33.1859 32.0836 33.1859 32.159 33.1859 32.1779C33.1859 32.1967 33.1859 32.2722 33.1859 32.2911C33.1859 32.3099 33.1859 32.3854 33.1859 32.4043C33.1859 32.4231 33.1859 32.4986 33.1859 32.5175C33.1859 32.5363 33.1859 32.6118 33.1859 32.6307C33.1859 32.6495 33.1859 32.725 33.1859 32.7439C33.1859 32.7627 33.1859 32.8382 33.1859 32.8571C33.1859 32.8759 33.1859 32.9514 33.1859 32.9703C33.1859 32.9891 33.1859 33.0646 33.1859 33.0835C33.1859 33.1023 33.1859 33.1778 33.1859 33.1967C33.1859 33.2155 33.1859 33.291 33.1859 33.3099C33.1859 33.3288 33.1859 33.4042 33.1859 33.4231C33.1859 33.442 33.1859 33.5174 33.1859 33.5363C33.1859 33.5552 33.1859 33.6306 33.1859 33.6495C33.1859 33.6684 33.1859 33.7438 33.1859 33.7627C33.1859 33.7816 33.1859 33.8571 33.1859 33.8759C33.1859 33.8948 33.1859 33.9703 33.1859 33.9891C33.1859 34.008 33.1859 34.0835 33.1859 34.1023L35.1859 34.1023C35.1859 34.0835 35.1859 34.008 35.1859 33.9891C35.1859 33.9703 35.1859 33.8948 35.1859 33.8759C35.1859 33.857 35.1859 33.7816 35.1859 33.7627C35.1859 33.7438 35.1859 33.6684 35.1859 33.6495C35.1859 33.6306 35.1859 33.5552 35.1859 33.5363C35.1859 33.5174 35.1859 33.442 35.1859 33.4231C35.1859 33.4042 35.1859 33.3288 35.1859 33.3099C35.1859 33.291 35.1859 33.2155 35.1859 33.1967C35.1859 33.1778 35.1859 33.1023 35.1859 33.0835C35.1859 33.0646 35.1859 32.9891 35.1859 32.9703C35.1859 32.9514 35.1859 32.8759 35.1859 32.8571C35.1859 32.8382 35.1859 32.7627 35.1859 32.7439C35.1859 32.725 35.1859 32.6495 35.1859 32.6307C35.1859 32.6118 35.1859 32.5363 35.1859 32.5175C35.1859 32.4986 35.1859 32.4231 35.1859 32.4043C35.1859 32.3854 35.1859 32.3099 35.1859 32.2911C35.1859 32.2722 35.1859 32.1968 35.1859 32.1779C35.1859 32.159 35.1859 32.0836 35.1859 32.0647C35.1859 32.0458 35.1859 31.9704 35.1859 31.9515C35.1859 31.9326 35.1859 31.8572 35.1859 31.8383C35.1859 31.8194 35.1859 31.744 35.1859 31.7251C35.1859 31.7062 35.1859 31.6308 35.1859 31.6119C35.1859 31.5931 35.1859 31.5176 35.1859 31.4987C35.1859 31.4799 35.1859 31.4044 35.1859 31.3855C35.1859 31.3667 35.1859 31.2912 35.1859 31.2724C35.1859 31.2535 35.1859 31.178 35.1859 31.1592C35.1859 31.1403 35.1859 31.0648 35.1859 31.046C35.1859 31.0271 35.1859 30.9517 35.1859 30.9328C35.1859 30.9139 35.1859 30.8385 35.1859 30.8196C35.1859 30.8007 35.1859 30.7253 35.1859 30.7064C35.1859 30.6876 35.1859 30.6121 35.1859 30.5932C35.1859 30.5744 35.1859 30.4989 35.1859 30.48C35.1859 30.4611 35.1859 30.3857 35.1859 30.3669C35.1859 30.348 35.1859 30.2725 35.1859 30.2537C35.1859 30.2348 35.1859 30.1594 35.1859 30.1405C35.1859 30.1217 35.1859 30.0462 35.1859 30.0273C35.1859 30.0085 35.1859 29.933 35.1859 29.9141C35.1859 29.8952 35.1859 29.8198 35.1859 29.801C35.1859 29.7821 35.1859 29.7067 35.1859 29.6878C35.1859 29.6689 35.1859 29.5935 35.1859 29.5746C35.1859 29.5558 35.1859 29.4803 35.1859 29.4614C35.1859 29.4426 35.1859 29.3671 35.1859 29.3483C35.1859 29.3294 35.1859 29.2539 35.1859 29.2351C35.1859 29.2162 35.1859 29.1408 35.1859 29.1219C35.1859 29.1031 35.1859 29.0276 35.1859 29.0087C35.1859 28.9899 35.1859 28.9144 35.1859 28.8956C35.1859 28.8767 35.1859 28.8013 35.1859 28.7824C35.1859 28.7635 35.1859 28.6881 35.1859 28.6692C35.1859 28.6504 35.1859 28.5749 35.1859 28.556C35.1859 28.5371 35.1859 28.4617 35.1859 28.4429C35.1859 28.424 35.1859 28.3486 35.1859 28.3297C35.1859 28.3109 35.1859 28.2354 35.1859 28.2165C35.1859 28.1976 35.1859 28.1222 35.1859 28.1034C35.1859 28.0845 35.1859 28.0091 35.1859 27.9902C35.1859 27.9714 35.1859 27.8959 35.1859 27.877C35.1859 27.8582 35.1859 27.7827 35.1859 27.7639C35.1859 27.745 35.1859 27.6696 35.1859 27.6507C35.1859 27.6319 35.1859 27.5564 35.1859 27.5375C35.1859 27.5186 35.1859 27.4432 35.1859 27.4244C35.1859 27.4055 35.1859 27.3301 35.1859 27.3112C35.1859 27.2924 35.1859 27.2169 35.1859 27.198C35.1859 27.1791 35.1859 27.1037 35.1859 27.0849C35.1859 27.066 35.1859 26.9906 35.1859 26.9717C35.1859 26.9529 35.1859 26.8774 35.1859 26.8585C35.1859 26.8396 35.1859 26.7642 35.1859 26.7454C35.1859 26.7265 35.1859 26.6511 35.1859 26.6322C35.1859 26.6134 35.1859 26.5379 35.1859 26.5191C35.1859 26.5002 35.1859 26.4248 35.1859 26.4059C35.1859 26.3871 35.1859 26.3116 35.1859 26.2927C35.1859 26.2738 35.1859 26.1984 35.1859 26.1796C35.1859 26.1607 35.1859 26.0853 35.1859 26.0664C35.1859 26.0476 35.1859 25.9721 35.1859 25.9533C35.1859 25.9344 35.1859 25.859 35.1859 25.8401C35.1859 25.8213 35.1859 25.7458 35.1859 25.727C35.1859 25.7081 35.1859 25.6327 35.1859 25.6138C35.1859 25.595 35.1859 25.5195 35.1859 25.5006C35.1859 25.4817 35.1859 25.4063 35.1859 25.3875C35.1859 25.3686 35.1859 25.2932 35.1859 25.2743C35.1859 25.2555 35.1859 25.18 35.1859 25.1612C35.1859 25.1423 35.1859 25.0669 35.1859 25.048C35.1859 25.0292 35.1859 24.9537 35.1859 24.9349C35.1859 24.916 35.1859 24.8406 35.1859 24.8217C35.1859 24.8029 35.1859 24.7274 35.1859 24.7086C35.1859 24.6897 35.1859 24.6143 35.1859 24.5954C35.1859 24.5766 35.1859 24.5011 35.1859 24.4822C35.1859 24.4633 35.1859 24.3879 35.1859 24.3691C35.1859 24.3503 35.1859 24.2748 35.1859 24.2559C35.1859 24.237 35.1859 24.1616 35.1859 24.1428C35.1859 24.124 35.1859 24.0485 35.1859 24.0296C35.1859 24.0107 35.1859 23.9353 35.1859 23.9165C35.1859 23.8976 35.1859 23.8222 35.1859 23.8033C35.1859 23.7844 35.1859 23.709 35.1859 23.6902C35.1859 23.6713 35.1859 23.5959 35.1859 23.577C35.1859 23.5581 35.1859 23.4827 35.1859 23.4639C35.1859 23.445 35.1859 23.3696 35.1859 23.3507C35.1859 23.3318 35.1859 23.2564 35.1859 23.2376C35.1859 23.2187 35.1859 23.1433 35.1859 23.1244C35.1859 23.1055 35.1859 23.0301 35.1859 23.0113C35.1859 22.9924 35.1859 22.917 35.1859 22.8981C35.1859 22.8792 35.1859 22.8038 35.1859 22.785C35.1859 22.7661 35.1859 22.6907 35.1859 22.6718C35.1859 22.6529 35.1859 22.5775 35.1859 22.5587C35.1859 22.5398 35.1859 22.4644 35.1859 22.4455C35.1859 22.4266 35.1859 22.3512 35.1859 22.3324C35.1859 22.3136 35.1859 22.2381 35.1859 22.2192C35.1859 22.2003 35.1859 22.1249 35.1859 22.1061C35.1859 22.0873 35.1859 22.0118 35.1859 21.9929C35.1859 21.974 35.1859 21.8987 35.1859 21.8798C35.1859 21.861 35.1859 21.7855 35.1859 21.7666C35.1859 21.7477 35.1859 21.6724 35.1859 21.6535C35.1859 21.6347 35.1859 21.5592 35.1859 21.5404C35.1859 21.5215 35.1859 21.4461 35.1859 21.4272C35.1859 21.4084 35.1859 21.3329 35.1859 21.3141C35.1859 21.2952 35.1859 21.2198 35.1859 21.2009C35.1859 21.1821 35.1859 21.1066 35.1859 21.0878C35.1859 21.0689 35.1859 20.9935 35.1859 20.9746C35.1859 20.9558 35.1859 20.8803 35.1859 20.8615C35.1859 20.8426 35.1859 20.7672 35.1859 20.7483C35.1859 20.7294 35.1859 20.654 35.1859 20.6352C35.1859 20.6163 35.1859 20.5409 35.1859 20.522C35.1859 20.5031 35.1859 20.4277 35.1859 20.4089C35.1859 20.3901 35.1859 20.3146 35.1859 20.2957C35.1859 20.2768 35.1859 20.2015 35.1859 20.1826C35.1859 20.1638 35.1859 20.0883 35.1859 20.0695C35.1859 20.0506 35.1859 19.9752 35.1859 19.9563C35.1859 19.9375 35.1859 19.862 35.1859 19.8432C35.1859 19.8243 35.1859 19.7489 35.1859 19.73C35.1859 19.7112 35.1859 19.6357 35.1859 19.6169C35.1859 19.598 35.1859 19.5226 35.1859 19.5037C35.1859 19.4849 35.1859 19.4094 35.1859 19.3906C35.1859 19.3717 35.1859 19.2963 35.1859 19.2774C35.1859 19.2585 35.1859 19.1831 35.1859 19.1643C35.1859 19.1455 35.1859 19.07 35.1859 19.0511C35.1859 19.0322 35.1859 18.9569 35.1859 18.938C35.1859 18.9192 35.1859 18.8437 35.1859 18.8248C35.1859 18.8059 35.1859 18.7306 35.1859 18.7117C35.1859 18.6929 35.1859 18.6174 35.1859 18.5986C35.1859 18.5797 35.1859 18.5043 35.1859 18.4854C35.1859 18.4666 35.1859 18.3911 35.1859 18.3723C35.1859 18.3534 35.1859 18.278 35.1859 18.2591C35.1859 18.2403 35.1859 18.1648 35.1859 18.146C35.1859 18.1271 35.1859 18.0517 35.1859 18.0328C35.1859 18.014 35.1859 17.9385 35.1859 17.9197C35.1859 17.9008 35.1859 17.8254 35.1859 17.8065C35.1859 17.7876 35.1859 17.7122 35.1859 17.6934C35.1859 17.6746 35.1859 17.5991 35.1859 17.5802C35.1859 17.5613 35.1859 17.4859 35.1859 17.4671C35.1859 17.4483 35.1859 17.3728 35.1859 17.3539C35.1859 17.335 35.1859 17.2597 35.1859 17.2408C35.1859 17.222 35.1859 17.1465 35.1859 17.1276C35.1859 17.1087 35.1859 17.0334 35.1859 17.0145C35.1859 16.9957 35.1859 16.9202 35.1859 16.9014C35.1859 16.8825 35.1859 16.8071 35.1859 16.7882C35.1859 16.7694 35.1859 16.6939 35.1859 16.6751C35.1859 16.6562 35.1859 16.5808 35.1859 16.5619C35.1859 16.5431 35.1859 16.4676 35.1859 16.4488C35.1859 16.4299 35.1859 16.3545 35.1859 16.3356C35.1859 16.3168 35.1859 16.2413 35.1859 16.2225C35.1859 16.2036 35.1859 16.1282 35.1859 16.1093C35.1859 16.0905 35.1859 16.015 35.1859 15.9962C35.1859 15.9773 35.1859 15.9019 35.1859 15.883C35.1859 15.8642 35.1859 15.7887 35.1859 15.7699C35.1859 15.751 35.1859 15.6756 35.1859 15.6567C35.1859 15.6379 35.1859 15.5624 35.1859 15.5436C35.1859 15.5247 35.1859 15.4493 35.1859 15.4304C35.1859 15.4116 35.1859 15.3361 35.1859 15.3173C35.1859 15.2984 35.1859 15.223 35.1859 15.2041C35.1859 15.1853 35.1859 15.1098 35.1859 15.091C35.1859 15.0721 35.1859 14.9967 35.1859 14.9778C35.1859 14.959 35.1859 14.8835 35.1859 14.8646C35.1859 14.8457 35.1859 14.7704 35.1859 14.7515C35.1859 14.7327 35.1859 14.6572 35.1859 14.6383C35.1859 14.6194 35.1859 14.544 35.1859 14.5252C35.1859 14.5063 35.1859 14.4309 35.1859 14.412C35.1859 14.3931 35.1859 14.3177 35.1859 14.2989C35.1859 14.28 35.1859 14.2046 35.1859 14.1857C35.1859 14.1669 35.1859 14.0914 35.1859 14.0726C35.1859 14.0537 35.1859 13.9783 35.1859 13.9594C35.1859 13.9406 35.1859 13.8651 35.1859 13.8463C35.1859 13.8274 35.1859 13.752 35.1859 13.7331C35.1859 13.7143 35.1859 13.6388 35.1859 13.6199C35.1859 13.601 35.1859 13.5256 35.1859 13.5068C35.1859 13.4879 35.1859 13.4125 35.1859 13.3936C35.1859 13.3748 35.1859 13.2993 35.1859 13.2805C35.1859 13.2616 35.1859 13.1862 35.1859 13.1673C35.1859 13.1485 35.1859 13.073 35.1859 13.0542C35.1859 13.0353 35.1859 12.9599 35.1859 12.941C35.1859 12.9222 35.1859 12.8467 35.1859 12.8278C35.1859 12.8089 35.1859 12.7335 35.1859 12.7147C35.1859 12.6958 35.1859 12.6204 35.1859 12.6015C35.1859 12.5827 35.1859 12.5072 35.1859 12.4883C35.1859 12.4694 35.1859 12.394 35.1859 12.3752C35.1859 12.3563 35.1859 12.2809 35.1859 12.262C35.1859 12.2432 35.1859 12.1677 35.1859 12.1489C35.1859 12.13 35.1859 12.0546 35.1859 12.0357C35.1859 12.0169 35.1859 11.9414 35.1859 11.9225C35.1859 11.9036 35.1859 11.8282 35.1859 11.8094C35.1859 11.7905 35.1859 11.7151 35.1859 11.6962C35.1859 11.6774 35.1859 11.6019 35.1859 11.583C35.1859 11.5641 35.1859 11.4887 35.1859 11.4699C35.1859 11.451 35.1859 11.3756 35.1859 11.3567C35.1859 11.3379 35.1859 11.2624 35.1859 11.2435C35.1859 11.2246 35.1859 11.1492 35.1859 11.1304C35.1859 11.1115 35.1859 11.0361 35.1859 11.0172C35.1859 10.9984 35.1859 10.9229 35.1859 10.904C35.1859 10.8852 35.1859 10.8097 35.1859 10.7909C35.1859 10.772 35.1859 10.6966 35.1859 10.6777C35.1859 10.6588 35.1859 10.5834 35.1859 10.5645C35.1859 10.5457 35.1859 10.4702 35.1859 10.4513C35.1859 10.4324 35.1859 10.357 35.1859 10.3382C35.1859 10.3193 35.1859 10.2439 35.1859 10.225C35.1859 10.2062 35.1859 10.1307 35.1859 10.1118C35.1859 10.093 35.1859 10.0175 35.1859 9.99866C35.1859 9.9798 35.1859 9.90435 35.1859 9.88549C35.1859 9.86663 35.1859 9.79117 35.1859 9.77231C35.1859 9.75345 35.1859 9.67799 35.1859 9.65913C35.1859 9.64026 35.1859 9.56482 35.1859 9.54596C35.1859 9.5271 35.1859 9.45164 35.1859 9.43278C35.1859 9.41392 35.1859 9.33846 35.1859 9.3196C35.1859 9.30074 35.1859 9.22528 35.1859 9.20642C35.1859 9.18756 35.1859 9.1121 35.1859 9.09324C35.1859 9.07438 35.1859 8.99892 35.1859 8.98006C35.1859 8.9612 35.1859 8.88574 35.1859 8.86688C35.1859 8.84801 35.1859 8.77256 35.1859 8.7537C35.1859 8.73484 35.1859 8.65938 35.1859 8.64051C35.1859 8.62165 35.1859 8.54619 35.1859 8.52733C35.1859 8.50846 35.1859 8.43301 35.1859 8.41414C35.1859 8.39528 35.1859 8.31982 35.1859 8.30096C35.1859 8.2821 35.1859 8.20663 35.1859 8.18777C35.1859 8.1689 35.1859 8.09344 35.1859 8.07458C35.1859 8.05572 35.1859 7.98026 35.1859 7.9614C35.1859 7.94254 35.1859 7.86707 35.1859 7.84821C35.1859 7.82935 35.1859 7.75388 35.1859 7.73502C35.1859 7.71616 35.1859 7.64069 35.1859 7.62183C35.1859 7.60297 35.1859 7.5275 35.1859 7.50864C35.1859 7.48977 35.1859 7.41431 35.1859 7.39544C35.1859 7.37657 35.1859 7.30112 35.1859 7.28225C35.1859 7.26339 35.1859 7.18792 35.1859 7.16906C35.1859 7.15018 35.1859 7.07473 35.1859 7.05585C35.1859 7.037 35.1859 6.96152 35.1859 6.94267C35.1859 6.9238 35.1859 6.84834 35.1859 6.82947C35.1859 6.8106 35.1859 6.73514 35.1859 6.71627C35.1859 6.69741 35.1859 6.62194 35.1859 6.60307C35.1859 6.58421 35.1859 6.50874 35.1859 6.48987C35.1859 6.47101 35.1859 6.39554 35.1859 6.37667C35.1859 6.35781 35.1859 6.28234 35.1859 6.26347C35.1859 6.2446 35.1859 6.16914 35.1859 6.15027C35.1859 6.1314 35.1859 6.05593 35.1859 6.03707C35.1859 6.0182 35.1859 5.94273 35.1859 5.92386C35.1859 5.90499 35.1859 5.82952 35.1859 5.81066C35.1859 5.7918 35.1859 5.71632 35.1859 5.69745C35.1859 5.67858 35.1859 5.60311 35.1859 5.58424C35.1859 5.56537 35.1859 5.4899 35.1859 5.47104C35.1859 5.45217 35.1859 5.37669 35.1859 5.35783C35.1859 5.33896 35.1859 5.26348 35.1859 5.24462C35.1859 5.22575 35.1859 5.15027 35.1859 5.1314L33.1859 5.1314ZM33.1859 34.1023C33.1859 35.0006 32.9226 35.5968 32.553 35.9673C32.1837 36.3375 31.5908 36.6 30.6995 36.6L30.6995 38.6C31.9901 38.6 33.1404 38.2102 33.9689 37.3798C34.797 36.5497 35.1859 35.3972 35.1859 34.1023L33.1859 34.1023ZM30.6995 36.6C30.6862 36.6 30.5929 36.6 30.5795 36.6C30.5662 36.6 30.4729 36.6 30.4595 36.6C30.4462 36.6 30.3529 36.6 30.3396 36.6C30.3262 36.6 30.2329 36.6 30.2196 36.6C30.2062 36.6 30.1129 36.6 30.0996 36.6C30.0862 36.6 29.9929 36.6 29.9796 36.6C29.9663 36.6 29.8729 36.6 29.8596 36.6C29.8463 36.6 29.7529 36.6 29.7396 36.6C29.7263 36.6 29.6331 36.6 29.6196 36.6C29.6063 36.6 29.5129 36.6 29.4998 36.6C29.4863 36.6 29.3929 36.6 29.3796 36.6C29.3665 36.6 29.2729 36.6 29.2596 36.6C29.2463 36.6 29.1531 36.6 29.1396 36.6C29.1263 36.6 29.0331 36.6 29.0198 36.6C29.0065 36.6 28.9131 36.6 28.8998 36.6C28.8865 36.6 28.7932 36.6 28.7798 36.6C28.7664 36.6 28.6732 36.6 28.6599 36.6C28.6466 36.6 28.5532 36.6 28.5399 36.6C28.5266 36.6 28.4333 36.6 28.4199 36.6C28.4065 36.6 28.3134 36.6 28.3 36.6C28.2867 36.6 28.1934 36.6 28.1801 36.6C28.1666 36.6 28.0734 36.6 28.0601 36.6C28.0468 36.6 27.9534 36.6 27.9401 36.6C27.9268 36.6 27.8335 36.6 27.8202 36.6C27.8069 36.6 27.7135 36.6 27.7002 36.6C27.6869 36.6 27.5936 36.6 27.5803 36.6C27.567 36.6 27.4736 36.6 27.4603 36.6C27.4469 36.6 27.3536 36.6 27.3405 36.6C27.3271 36.6 27.2338 36.6 27.2203 36.6C27.207 36.6 27.1138 36.6 27.1005 36.6C27.0872 36.6 26.9939 36.6 26.9805 36.6C26.9672 36.6 26.8739 36.6 26.8606 36.6C26.8473 36.6 26.754 36.6 26.7407 36.6C26.7274 36.6 26.6342 36.6 26.6207 36.6C26.6073 36.6 26.514 36.6 26.5009 36.6C26.4875 36.6 26.3942 36.6 26.3809 36.6C26.3676 36.6 26.2743 36.6 26.2609 36.6C26.2476 36.6 26.1543 36.6 26.141 36.6C26.1277 36.6 26.0344 36.6 26.0211 36.6C26.0078 36.6 25.9146 36.6 25.9011 36.6C25.8878 36.6 25.7946 36.6 25.7812 36.6C25.7678 36.6 25.6746 36.6 25.6613 36.6C25.6479 36.6 25.5547 36.6 25.5414 36.6C25.5281 36.6 25.4348 36.6 25.4214 36.6C25.4081 36.6 25.3148 36.6 25.3015 36.6C25.2881 36.6 25.1949 36.6 25.1816 36.6C25.1683 36.6 25.075 36.6 25.0616 36.6C25.0483 36.6 24.9551 36.6 24.9417 36.6C24.9283 36.6 24.8352 36.6 24.8218 36.6C24.8085 36.6 24.7152 36.6 24.7019 36.6C24.6885 36.6 24.5953 36.6 24.582 36.6C24.5686 36.6 24.4753 36.6 24.462 36.6C24.4489 36.6 24.3555 36.6 24.3422 36.6C24.3289 36.6 24.2356 36.6 24.2222 36.6C24.2089 36.6 24.1157 36.6 24.1023 36.6C24.089 36.6 23.9957 36.6 23.9824 36.6C23.9691 36.6 23.8759 36.6 23.8625 36.6C23.8491 36.6 23.7559 36.6 23.7426 36.6C23.7292 36.6 23.636 36.6 23.6227 36.6C23.6093 36.6 23.5161 36.6 23.5028 36.6C23.4895 36.6 23.3962 36.6 23.3829 36.6C23.3696 36.6 23.2762 36.6 23.2629 36.6C23.2498 36.6 23.1564 36.6 23.1431 36.6C23.1298 36.6 23.0365 36.6 23.0232 36.6C23.0099 36.6 22.9166 36.6 22.9032 36.6C22.8899 36.6 22.7968 36.6 22.7833 36.6C22.77 36.6 22.6768 36.6 22.6635 36.6C22.6501 36.6 22.5569 36.6 22.5435 36.6C22.5302 36.6 22.4369 36.6 22.4236 36.6C22.4103 36.6 22.317 36.6 22.3037 36.6C22.2904 36.6 22.1971 36.6 22.1838 36.6C22.1705 36.6 22.0771 36.6 22.0638 36.6C22.0505 36.6 21.9573 36.6 21.944 36.6C21.9307 36.6 21.8374 36.6 21.8241 36.6C21.8108 36.6 21.7175 36.6 21.7042 36.6C21.6909 36.6 21.5977 36.6 21.5844 36.6C21.571 36.6 21.4777 36.6 21.4644 36.6C21.451 36.6 21.3578 36.6 21.3445 36.6C21.3311 36.6 21.2379 36.6 21.2246 36.6C21.2112 36.6 21.118 36.6 21.1047 36.6C21.0913 36.6 20.998 36.6 20.9847 36.6C20.9714 36.6 20.8782 36.6 20.8649 36.6C20.8514 36.6 20.7583 36.6 20.745 36.6C20.7316 36.6 20.6384 36.6 20.6251 36.6C20.6117 36.6 20.5186 36.6 20.5052 36.6C20.4918 36.6 20.3986 36.6 20.3853 36.6C20.3719 36.6 20.2787 36.6 20.2654 36.6C20.252 36.6 20.1588 36.6 20.1455 36.6C20.1321 36.6 20.0389 36.6 20.0256 36.6C20.0122 36.6 19.9189 36.6 19.9056 36.6C19.8923 36.6 19.7991 36.6 19.7858 36.6C19.7723 36.6 19.6792 36.6 19.6659 36.6C19.6525 36.6 19.5593 36.6 19.546 36.6C19.5326 36.6 19.4395 36.6 19.4261 36.6C19.4127 36.6 19.3195 36.6 19.3062 36.6C19.2928 36.6 19.1996 36.6 19.1863 36.6C19.1729 36.6 19.0797 36.6 19.0664 36.6C19.053 36.6 18.9598 36.6 18.9465 36.6C18.9331 36.6 18.8398 36.6 18.8265 36.6C18.8132 36.6 18.72 36.6 18.7067 36.6C18.6934 36.6 18.6001 36.6 18.5868 36.6C18.5735 36.6 18.4802 36.6 18.4669 36.6C18.4536 36.6 18.3604 36.6 18.347 36.6C18.3337 36.6 18.2404 36.6 18.2271 36.6C18.2137 36.6 18.1205 36.6 18.1072 36.6C18.0939 36.6 18.0006 36.6 17.9873 36.6C17.974 36.6 17.8807 36.6 17.8673 36.6C17.854 36.6 17.7607 36.6 17.7474 36.6C17.7341 36.6 17.6409 36.6 17.6274 36.6C17.6143 36.6 17.521 36.6 17.5076 36.6C17.4943 36.6 17.401 36.6 17.3877 36.6C17.3744 36.6 17.2811 36.6 17.2678 36.6C17.2544 36.6 17.1613 36.6 17.1479 36.6C17.1345 36.6 17.0413 36.6 17.028 36.6C17.0146 36.6 16.9214 36.6 16.9081 36.6C16.8948 36.6 16.8015 36.6 16.7882 36.6C16.7749 36.6 16.6816 36.6 16.6682 36.6C16.6549 36.6 16.5616 36.6 16.5483 36.6C16.535 36.6 16.4417 36.6 16.4283 36.6C16.415 36.6 16.3218 36.6 16.3085 36.6C16.295 36.6 16.2019 36.6 16.1886 36.6C16.1753 36.6 16.082 36.6 16.0687 36.6C16.0554 36.6 15.962 36.6 15.9487 36.6C15.9354 36.6 15.8422 36.6 15.8289 36.6C15.8156 36.6 15.7222 36.6 15.7089 36.6C15.6956 36.6 15.6023 36.6 15.589 36.6C15.5757 36.6 15.4824 36.6 15.4691 36.6C15.4558 36.6 15.3625 36.6 15.3491 36.6C15.3358 36.6 15.2426 36.6 15.2292 36.6C15.2158 36.6 15.1226 36.6 15.1093 36.6C15.0959 36.6 15.0027 36.6 14.9894 36.6C14.9761 36.6 14.8828 36.6 14.8694 36.6C14.856 36.6 14.7628 36.6 14.7495 36.6C14.7362 36.6 14.6429 36.6 14.6296 36.6C14.6163 36.6 14.5229 36.6 14.5096 36.6C14.4963 36.6 14.403 36.6 14.3896 36.6C14.3763 36.6 14.2831 36.6 14.2698 36.6C14.2565 36.6 14.1632 36.6 14.1498 36.6C14.1364 36.6 14.0432 36.6 14.0299 36.6C14.0166 36.6 13.9233 36.6 13.9099 36.6C13.8966 36.6 13.8033 36.6 13.79 36.6C13.7767 36.6 13.6833 36.6 13.67 36.6C13.6567 36.6 13.5634 36.6 13.55 36.6C13.5367 36.6 13.4435 36.6 13.4302 36.6C13.4169 36.6 13.3236 36.6 13.3102 36.6C13.2968 36.6 13.2036 36.6 13.1903 36.6C13.177 36.6 13.0837 36.6 13.0703 36.6C13.0569 36.6 12.9637 36.6 12.9504 36.6C12.9371 36.6 12.8438 36.6 12.8304 36.6C12.8171 36.6 12.7238 36.6 12.7104 36.6C12.6971 36.6 12.6038 36.6 12.5905 36.6C12.5771 36.6 12.4839 36.6 12.4705 36.6C12.4572 36.6 12.3639 36.6 12.3506 36.6C12.3373 36.6 12.2439 36.6 12.2306 36.6C12.2173 36.6 12.124 36.6 12.1107 36.6C12.0973 36.6 12.004 36.6 11.9907 36.6C11.9774 36.6 11.884 36.6 11.8707 36.6C11.8574 36.6 11.764 36.6 11.7507 36.6C11.7373 36.6 11.644 36.6 11.6307 36.6C11.6176 36.6 11.524 36.6 11.5107 36.6C11.4974 36.6 11.4042 36.6 11.3907 36.6C11.3774 36.6 11.2842 36.6 11.2708 36.6C11.2574 36.6 11.1642 36.6 11.1509 36.6C11.1375 36.6 11.0442 36.6 11.0309 36.6C11.0176 36.6 10.9242 36.6 10.9109 36.6C10.8976 36.6 10.8042 36.6 10.7909 36.6C10.7776 36.6 10.6842 36.6 10.6709 36.6C10.6576 36.6 10.5643 36.6 10.5509 36.6C10.5376 36.6 10.4443 36.6 10.4309 36.6C10.4176 36.6 10.3243 36.6 10.3109 36.6L10.231 38.6C10.2443 38.6 10.3376 38.6 10.351 38.6C10.3643 38.6 10.4576 38.6 10.4709 38.6C10.4843 38.6 10.5776 38.6 10.5909 38.6C10.6042 38.6 10.6976 38.6 10.7109 38.6C10.7242 38.6 10.8176 38.6 10.8309 38.6C10.8442 38.6 10.9376 38.6 10.9509 38.6C10.9642 38.6 11.0575 38.6 11.0709 38.6C11.0842 38.6 11.1775 38.6 11.1909 38.6C11.2043 38.6 11.2975 38.6 11.3108 38.6C11.3242 38.6 11.4175 38.6 11.4308 38.6C11.4441 38.6 11.5375 38.6 11.5508 38.6C11.5641 38.6 11.6573 38.6 11.6708 38.6C11.6842 38.6 11.7773 38.6 11.7906 38.6C11.804 38.6 11.8973 38.6 11.9106 38.6C11.924 38.6 12.0173 38.6 12.0306 38.6C12.0439 38.6 12.1373 38.6 12.1506 38.6C12.1639 38.6 12.2573 38.6 12.2706 38.6C12.2839 38.6 12.3772 38.6 12.3906 38.6C12.4041 38.6 12.4972 38.6 12.5105 38.6C12.5238 38.6 12.6172 38.6 12.6305 38.6C12.6438 38.6 12.7371 38.6 12.7504 38.6C12.7637 38.6 12.8571 38.6 12.8704 38.6C12.8837 38.6 12.9771 38.6 12.9904 38.6C13.0038 38.6 13.097 38.6 13.1104 38.6C13.1237 38.6 13.2169 38.6 13.2303 38.6C13.2437 38.6 13.3369 38.6 13.3502 38.6C13.3635 38.6 13.4568 38.6 13.4702 38.6C13.4835 38.6 13.5768 38.6 13.5901 38.6C13.6034 38.6 13.6967 38.6 13.71 38.6C13.7233 38.6 13.8167 38.6 13.83 38.6C13.8434 38.6 13.9366 38.6 13.95 38.6C13.9631 38.6 14.0565 38.6 14.0699 38.6C14.0833 38.6 14.1765 38.6 14.1898 38.6C14.2031 38.6 14.2964 38.6 14.3097 38.6C14.323 38.6 14.4164 38.6 14.4297 38.6C14.4431 38.6 14.5363 38.6 14.5496 38.6C14.5629 38.6 14.6562 38.6 14.6696 38.6C14.6827 38.6 14.7761 38.6 14.7896 38.6C14.8029 38.6 14.8961 38.6 14.9094 38.6C14.9227 38.6 15.016 38.6 15.0293 38.6C15.0426 38.6 15.1359 38.6 15.1493 38.6C15.1626 38.6 15.2559 38.6 15.2692 38.6C15.2826 38.6 15.3759 38.6 15.389 38.6C15.4023 38.6 15.4957 38.6 15.509 38.6C15.5223 38.6 15.6156 38.6 15.629 38.6C15.6423 38.6 15.7356 38.6 15.7489 38.6C15.7623 38.6 15.8555 38.6 15.8688 38.6C15.8822 38.6 15.9753 38.6 15.9886 38.6C16.002 38.6 16.0953 38.6 16.1086 38.6C16.1219 38.6 16.2152 38.6 16.2286 38.6C16.2419 38.6 16.3352 38.6 16.3485 38.6C16.3618 38.6 16.4551 38.6 16.4684 38.6C16.4818 38.6 16.575 38.6 16.5883 38.6C16.6017 38.6 16.6949 38.6 16.7083 38.6C16.7214 38.6 16.8148 38.6 16.8281 38.6C16.8414 38.6 16.9347 38.6 16.948 38.6C16.9613 38.6 17.0546 38.6 17.068 38.6C17.0813 38.6 17.1744 38.6 17.1879 38.6C17.2012 38.6 17.2946 38.6 17.3077 38.6C17.321 38.6 17.4144 38.6 17.4277 38.6C17.441 38.6 17.5343 38.6 17.5476 38.6C17.561 38.6 17.6542 38.6 17.6675 38.6C17.6809 38.6 17.774 38.6 17.7874 38.6C17.8008 38.6 17.894 38.6 17.9073 38.6C17.9207 38.6 18.0139 38.6 18.0272 38.6C18.0405 38.6 18.1338 38.6 18.1471 38.6C18.1604 38.6 18.2537 38.6 18.267 38.6C18.2803 38.6 18.3735 38.6 18.3868 38.6C18.4001 38.6 18.4935 38.6 18.5068 38.6C18.5201 38.6 18.6134 38.6 18.6267 38.6C18.64 38.6 18.7333 38.6 18.7467 38.6C18.76 38.6 18.8531 38.6 18.8666 38.6C18.8799 38.6 18.9731 38.6 18.9865 38.6C18.9998 38.6 19.093 38.6 19.1064 38.6C19.1198 38.6 19.2129 38.6 19.2263 38.6C19.2396 38.6 19.3328 38.6 19.3462 38.6C19.3595 38.6 19.4526 38.6 19.4661 38.6C19.4794 38.6 19.5726 38.6 19.5859 38.6C19.5992 38.6 19.6925 38.6 19.7059 38.6C19.7192 38.6 19.8124 38.6 19.8258 38.6C19.8391 38.6 19.9323 38.6 19.9457 38.6C19.959 38.6 20.0522 38.6 20.0656 38.6C20.0789 38.6 20.1721 38.6 20.1855 38.6C20.1989 38.6 20.292 38.6 20.3054 38.6C20.3187 38.6 20.4119 38.6 20.4253 38.6C20.4386 38.6 20.5317 38.6 20.5452 38.6C20.5585 38.6 20.6517 38.6 20.665 38.6C20.6783 38.6 20.7716 38.6 20.785 38.6C20.7983 38.6 20.8915 38.6 20.9049 38.6C20.9182 38.6 21.0114 38.6 21.0248 38.6C21.0381 38.6 21.1313 38.6 21.1447 38.6C21.158 38.6 21.2512 38.6 21.2646 38.6C21.278 38.6 21.3712 38.6 21.3845 38.6C21.3978 38.6 21.4911 38.6 21.5044 38.6C21.5177 38.6 21.611 38.6 21.6243 38.6C21.6376 38.6 21.731 38.6 21.7441 38.6C21.7574 38.6 21.8508 38.6 21.8641 38.6C21.8774 38.6 21.9707 38.6 21.984 38.6C21.9973 38.6 22.0906 38.6 22.1039 38.6C22.1172 38.6 22.2104 38.6 22.2238 38.6C22.2371 38.6 22.3304 38.6 22.3438 38.6C22.3571 38.6 22.4503 38.6 22.4636 38.6C22.4771 38.6 22.5702 38.6 22.5835 38.6C22.5969 38.6 22.6901 38.6 22.7034 38.6C22.7168 38.6 22.8099 38.6 22.8232 38.6C22.8367 38.6 22.9299 38.6 22.9432 38.6C22.9565 38.6 23.0498 38.6 23.0631 38.6C23.0764 38.6 23.1697 38.6 23.183 38.6C23.1963 38.6 23.2896 38.6 23.3029 38.6C23.3162 38.6 23.4095 38.6 23.4229 38.6C23.436 38.6 23.5294 38.6 23.5428 38.6C23.5562 38.6 23.6493 38.6 23.6627 38.6C23.676 38.6 23.7692 38.6 23.7826 38.6C23.7959 38.6 23.8892 38.6 23.9025 38.6C23.9158 38.6 24.0092 38.6 24.0223 38.6C24.0358 38.6 24.129 38.6 24.1423 38.6C24.1556 38.6 24.2489 38.6 24.2622 38.6C24.2755 38.6 24.3688 38.6 24.3821 38.6C24.3954 38.6 24.4886 38.6 24.5021 38.6C24.5154 38.6 24.6086 38.6 24.6219 38.6C24.6353 38.6 24.7286 38.6 24.7419 38.6C24.7552 38.6 24.8485 38.6 24.8618 38.6C24.8752 38.6 24.9684 38.6 24.9817 38.6C24.995 38.6 25.0883 38.6 25.1016 38.6C25.1149 38.6 25.2083 38.6 25.2216 38.6C25.2349 38.6 25.3282 38.6 25.3416 38.6C25.3549 38.6 25.4481 38.6 25.4614 38.6C25.4747 38.6 25.568 38.6 25.5813 38.6C25.5946 38.6 25.6879 38.6 25.7013 38.6C25.7146 38.6 25.8079 38.6 25.8212 38.6C25.8346 38.6 25.9277 38.6 25.941 38.6C25.9543 38.6 26.0477 38.6 26.061 38.6C26.0743 38.6 26.1676 38.6 26.181 38.6C26.1943 38.6 26.2876 38.6 26.3009 38.6C26.3142 38.6 26.4075 38.6 26.4208 38.6C26.4341 38.6 26.5273 38.6 26.5408 38.6C26.5542 38.6 26.6473 38.6 26.6606 38.6C26.674 38.6 26.7673 38.6 26.7806 38.6C26.7939 38.6 26.8873 38.6 26.9006 38.6C26.9139 38.6 27.0072 38.6 27.0205 38.6C27.0338 38.6 27.1271 38.6 27.1405 38.6C27.1539 38.6 27.2471 38.6 27.2604 38.6C27.2737 38.6 27.3669 38.6 27.3804 38.6C27.3937 38.6 27.4869 38.6 27.5002 38.6C27.5135 38.6 27.6069 38.6 27.6202 38.6C27.6335 38.6 27.7269 38.6 27.7402 38.6C27.7535 38.6 27.8468 38.6 27.8601 38.6C27.8734 38.6 27.9668 38.6 27.9801 38.6C27.9934 38.6 28.0867 38.6 28.1001 38.6C28.1135 38.6 28.2067 38.6 28.22 38.6C28.2333 38.6 28.3265 38.6 28.34 38.6C28.3534 38.6 28.4467 38.6 28.4598 38.6C28.4731 38.6 28.5667 38.6 28.58 38.6C28.5931 38.6 28.6865 38.6 28.7 38.6C28.7133 38.6 28.8065 38.6 28.8198 38.6C28.8331 38.6 28.9265 38.6 28.9398 38.6C28.9531 38.6 29.0464 38.6 29.0598 38.6C29.0732 38.6 29.1664 38.6 29.1797 38.6C29.193 38.6 29.2864 38.6 29.2997 38.6C29.313 38.6 29.4062 38.6 29.4197 38.6C29.433 38.6 29.5262 38.6 29.5396 38.6C29.553 38.6 29.6462 38.6 29.6595 38.6C29.6729 38.6 29.7664 38.6 29.7795 38.6C29.7928 38.6 29.8864 38.6 29.8995 38.6C29.9128 38.6 30.0062 38.6 30.0197 38.6C30.0328 38.6 30.1262 38.6 30.1396 38.6C30.153 38.6 30.2462 38.6 30.2596 38.6C30.2729 38.6 30.3662 38.6 30.3795 38.6C30.3929 38.6 30.4862 38.6 30.4995 38.6C30.5129 38.6 30.6862 38.6 30.6995 38.6L30.6995 36.6ZM10.3109 36.6C9.422 36.6 8.74866 36.3361 8.3783 35.9639C8.0072 35.5911 7.74451 34.9938 7.74451 34.1023L5.74451 34.1023C5.74451 35.3927 6.13403 36.5442 6.96082 37.3748C7.78809 38.206 8.93799 38.6 10.231 38.6L10.3109 36.6ZM7.74451 34.1023C7.73328 29.2677 7.73328 24.4193 7.73328 19.5831L5.73328 19.5831C5.73328 24.4189 5.73328 29.2649 5.74451 34.1023L7.74451 34.1023ZM17.3387 34.3376C17.3427 34.3376 17.4449 34.3376 17.449 34.3376C17.4531 34.3376 17.5552 34.3376 17.5593 34.3376C17.5634 34.3376 17.6654 34.3376 17.6696 34.3376C17.6736 34.3376 17.7756 34.3376 17.7795 34.3376C17.7837 34.3376 17.8857 34.3376 17.8898 34.3376C17.8939 34.3376 17.9958 34.3376 17.9999 34.3376C18.004 34.3376 18.1058 34.3376 18.1099 34.3376C18.114 34.3376 18.2159 34.3376 18.2198 34.3376C18.224 34.3376 18.3258 34.3376 18.33 34.3376C18.3339 34.3376 18.4358 34.3376 18.4399 34.3376C18.4438 34.3376 18.5457 34.3376 18.5498 34.3376C18.5538 34.3376 18.6556 34.3376 18.6597 34.3376C18.6638 34.3376 18.7654 34.3376 18.7695 34.3376C18.7736 34.3376 18.8752 34.3376 18.8793 34.3376C18.8834 34.3376 18.9851 34.3376 18.9891 34.3376C18.993 34.3376 19.0948 34.3376 19.0989 34.3376C19.103 34.3376 19.2045 34.3376 19.2086 34.3376C19.2126 34.3376 19.3142 34.3376 19.3182 34.3376C19.3223 34.3376 19.424 34.3376 19.428 34.3376C19.4321 34.3376 19.5334 34.3376 19.5376 34.3376C19.5417 34.3376 19.6431 34.3376 19.6472 34.3376C19.6512 34.3376 19.7527 34.3376 19.7568 34.3376C19.7607 34.3376 19.8623 34.3376 19.8663 34.3376C19.8704 34.3376 19.9718 34.3376 19.976 34.3376C19.98 34.3376 20.0813 34.3376 20.0854 34.3376C20.0895 34.3376 20.1908 34.3376 20.1949 34.3376C20.1989 34.3376 20.3003 34.3376 20.3043 34.3376C20.3083 34.3376 20.4097 34.3376 20.4138 34.3376C20.4178 34.3376 20.5192 34.3376 20.5232 34.3376C20.5272 34.3376 20.6285 34.3376 20.6326 34.3376C20.6367 34.3376 20.7379 34.3376 20.7419 34.3376C20.7461 34.3376 20.8473 34.3376 20.8514 34.3376C20.8553 34.3376 20.9565 34.3376 20.9607 34.3376C20.9647 34.3376 21.066 34.3376 21.0699 34.3376C21.074 34.3376 21.1753 34.3376 21.1793 34.3376C21.1833 34.3376 21.2845 34.3376 21.2886 34.3376C21.2926 34.3376 21.3939 34.3376 21.3979 34.3376C21.402 34.3376 21.5031 34.3376 21.5072 34.3376C21.5112 34.3376 21.6124 34.3376 21.6165 34.3376C21.6205 34.3376 21.7216 34.3376 21.7257 34.3376C21.7297 34.3376 21.8308 34.3376 21.8348 34.3376C21.8389 34.3376 21.9401 34.3376 21.9441 34.3376C21.9481 34.3376 22.0493 34.3376 22.0533 34.3376C22.0573 34.3376 22.1584 34.3376 22.1625 34.3376C22.1666 34.3376 22.2676 34.3376 22.2717 34.3376C22.2758 34.3376 22.3768 34.3376 22.3807 34.3376C22.3848 34.3376 22.486 34.3376 22.49 34.3376C22.4941 34.3376 22.5951 34.3376 22.5992 34.3376C22.6031 34.3376 22.7043 34.3376 22.7083 34.3376C22.7124 34.3376 22.8134 34.3376 22.8175 34.3376C22.8215 34.3376 22.9226 34.3376 22.9266 34.3376C22.9307 34.3376 23.0317 34.3376 23.0356 34.3376C23.0397 34.3376 23.1407 34.3376 23.1449 34.3376C23.1489 34.3376 23.25 34.3376 23.254 34.3376C23.2581 34.3376 23.3591 34.3376 23.363 34.3376C23.3672 34.3376 23.5652 34.3376 23.5693 34.3376L23.5693 32.3376C23.5652 32.3376 23.4642 32.3376 23.4601 32.3376C23.4561 32.3376 23.3551 32.3376 23.351 32.3376C23.347 32.3376 23.2458 32.3376 23.2419 32.3376C23.2378 32.3376 23.1368 32.3376 23.1328 32.3376C23.1288 32.3376 23.0277 32.3376 23.0236 32.3376C23.0197 32.3376 22.9185 32.3376 22.9146 32.3376C22.9104 32.3376 22.8094 32.3376 22.8053 32.3376C22.8013 32.3376 22.7002 32.3376 22.6962 32.3376C22.6921 32.3376 22.5911 32.3376 22.587 32.3376C22.583 32.3376 22.4819 32.3376 22.4779 32.3376C22.4739 32.3376 22.3728 32.3376 22.3687 32.3376C22.3646 32.3376 22.2635 32.3376 22.2595 32.3376C22.2554 32.3376 22.1544 32.3376 22.1504 32.3376C22.1464 32.3376 22.0452 32.3376 22.0411 32.3376C22.0372 32.3376 21.936 32.3376 21.932 32.3376C21.9279 32.3376 21.8268 32.3376 21.8228 32.3376C21.8186 32.3376 21.7177 32.3376 21.7135 32.3376C21.7095 32.3376 21.6083 32.3376 21.6042 32.3376C21.6002 32.3376 21.4991 32.3376 21.495 32.3376C21.491 32.3376 21.3898 32.3376 21.3857 32.3376C21.3818 32.3376 21.2805 32.3376 21.2765 32.3376C21.2725 32.3376 21.1711 32.3376 21.1672 32.3376C21.1632 32.3376 21.0619 32.3376 21.0579 32.3376C21.0538 32.3376 20.9526 32.3376 20.9486 32.3376C20.9445 32.3376 20.8433 32.3376 20.8392 32.3376C20.8351 32.3376 20.7339 32.3376 20.7297 32.3376C20.7258 32.3376 20.6245 32.3376 20.6205 32.3376C20.6165 32.3376 20.5151 32.3376 20.5111 32.3376C20.507 32.3376 20.4056 32.3376 20.4016 32.3376C20.3976 32.3376 20.2961 32.3376 20.2922 32.3376C20.2881 32.3376 20.1868 32.3376 20.1827 32.3376C20.1786 32.3376 20.0773 32.3376 20.0732 32.3376C20.0691 32.3376 19.9678 32.3376 19.9637 32.3376C19.9597 32.3376 19.8582 32.3376 19.8542 32.3376C19.8501 32.3376 19.7487 32.3376 19.7446 32.3376C19.7405 32.3376 19.639 32.3376 19.635 32.3376C19.6309 32.3376 19.5295 32.3376 19.5254 32.3376C19.5212 32.3376 19.4198 32.3376 19.4158 32.3376C19.4117 32.3376 19.3102 32.3376 19.3062 32.3376C19.302 32.3376 19.2004 32.3376 19.1964 32.3376C19.1923 32.3376 19.0907 32.3376 19.0867 32.3376C19.0826 32.3376 18.981 32.3376 18.9769 32.3376C18.9729 32.3376 18.8712 32.3376 18.8671 32.3376C18.863 32.3376 18.7614 32.3376 18.7573 32.3376C18.7532 32.3376 18.6515 32.3376 18.6475 32.3376C18.6434 32.3376 18.5416 32.3376 18.5376 32.3376C18.5334 32.3376 18.4316 32.3376 18.4277 32.3376C18.4236 32.3376 18.3218 32.3376 18.3177 32.3376C18.3137 32.3376 18.2118 32.3376 18.2076 32.3376C18.2036 32.3376 18.1018 32.3376 18.0977 32.3376C18.0936 32.3376 17.9917 32.3376 17.9875 32.3376C17.9835 32.3376 17.8816 32.3376 17.8774 32.3376C17.8735 32.3376 17.7715 32.3376 17.7675 32.3376C17.7633 32.3376 17.6613 32.3376 17.6572 32.3376C17.6531 32.3376 17.5511 32.3376 17.547 32.3376C17.5428 32.3376 17.4408 32.3376 17.4368 32.3376L17.3387 34.3376ZM24.5693 33.3376C24.5693 33.3362 24.5693 33.2372 24.5693 33.2358C24.5693 33.2344 24.5693 33.1362 24.5693 33.1348C24.5693 33.1335 24.5693 33.0359 24.5693 33.0345C24.5693 33.0331 24.5693 32.9322 24.5693 32.9309C24.5693 32.9296 24.5693 32.8292 24.5693 32.8279C24.5693 32.8266 24.5693 32.7268 24.5693 32.7254C24.5693 32.7241 24.5693 32.6248 24.5693 32.6235C24.5693 32.6222 24.5693 32.5233 24.5693 32.522C24.5693 32.5207 24.5693 32.4222 24.5693 32.4209C24.5693 32.4196 24.5693 32.3214 24.5693 32.3201C24.5693 32.3188 24.5693 32.2209 24.5693 32.2196C24.5693 32.2183 24.5693 32.1205 24.5693 32.1193C24.5693 32.118 24.5693 32.0203 24.5693 32.0191C24.5693 32.0178 24.5693 31.9202 24.5693 31.9189C24.5693 31.9176 24.5693 31.8201 24.5693 31.8188C24.5693 31.8175 24.5693 31.7199 24.5693 31.7187C24.5693 31.7175 24.5693 31.6197 24.5693 31.6184C24.5693 31.6171 24.5693 31.5192 24.5693 31.5179C24.5693 31.5166 24.5693 31.3369 24.5693 31.3357L22.5693 31.3357C22.5693 31.3369 22.5693 31.4353 22.5693 31.4366C22.5693 31.4379 22.5693 31.536 22.5693 31.5373C22.5693 31.5386 22.5693 31.6364 22.5693 31.6377C22.5693 31.639 22.5693 31.7366 22.5693 31.7379C22.5693 31.7392 22.5693 31.8368 22.5693 31.8381C22.5693 31.8394 22.5693 31.9369 22.5693 31.9382C22.5693 31.9395 22.5693 32.037 22.5693 32.0383C22.5693 32.0396 22.5693 32.1373 22.5693 32.1385C22.5693 32.1398 22.587 32.3363 22.587 32.3376C22.587 32.3389 22.5693 32.439 22.5693 32.4403C22.5693 32.4416 22.5693 32.5402 22.5693 32.5415C22.5693 32.5428 22.5693 32.6418 22.5693 32.6431C22.5693 32.6444 22.5693 32.7438 22.5693 32.7451C22.5693 32.7464 22.5693 32.8463 22.5693 32.8476C22.5693 32.8489 22.5693 32.9494 22.5693 32.9508C22.5693 32.9522 22.5693 33.0532 22.5693 33.0545C22.5693 33.0559 22.5693 33.1536 22.5693 33.155C22.5693 33.1563 22.5693 33.2548 22.5693 33.2561L24.5693 33.3376ZM23.5693 30.3357C23.5652 30.3357 23.4625 30.3357 23.4584 30.3357C23.4543 30.3357 23.3517 30.3357 23.3477 30.3357C23.3435 30.3357 23.241 30.3357 23.2369 30.3357C23.2328 30.3357 23.1304 30.3357 23.1263 30.3357C23.1222 30.3357 23.0198 30.3357 23.0157 30.3357C23.0116 30.3357 22.9094 30.3357 22.9053 30.3357C22.9012 30.3357 22.799 30.3357 22.7949 30.3357C22.7908 30.3357 22.6886 30.3357 22.6844 30.3357C22.6804 30.3357 22.5784 30.3357 22.5743 30.3357C22.5702 30.3357 22.4681 30.3357 22.4641 30.3357C22.46 30.3357 22.358 30.3357 22.3539 30.3357C22.3499 30.3357 22.248 30.3357 22.2439 30.3357C22.2397 30.3357 22.1379 30.3357 22.1339 30.3357C22.1299 30.3357 22.028 30.3357 22.0239 30.3357C22.0199 30.3357 21.9181 30.3357 21.9139 30.3357C21.9099 30.3357 21.8083 30.3357 21.8042 30.3357C21.8002 30.3357 21.6985 30.3357 21.6943 30.3357C21.6903 30.3357 21.5887 30.3357 21.5847 30.3357C21.5806 30.3357 21.4791 30.3357 21.475 30.3357C21.4709 30.3357 21.3695 30.3357 21.3654 30.3357C21.3613 30.3357 21.2599 30.3357 21.2557 30.3357C21.2518 30.3357 21.1503 30.3357 21.1462 30.3357C21.1422 30.3357 21.0408 30.3357 21.0367 30.3357C21.0327 30.3357 20.9314 30.3357 20.9272 30.3357C20.9232 30.3357 20.822 30.3357 20.8179 30.3357C20.8138 30.3357 20.7126 30.3357 20.7085 30.3357C20.7043 30.3357 20.6033 30.3357 20.5992 30.3357C20.5952 30.3357 20.494 30.3357 20.4899 30.3357C20.4858 30.3357 20.3846 30.3357 20.3806 30.3357C20.3766 30.3357 20.2754 30.3357 20.2714 30.3357C20.2675 30.3357 20.1661 30.3357 20.1622 30.3357C20.1582 30.3357 20.057 30.3357 20.053 30.3357C20.049 30.3357 19.9479 30.3357 19.9438 30.3357C19.9398 30.3357 19.8387 30.3357 19.8347 30.3357C19.8307 30.3357 19.7296 30.3357 19.7256 30.3357C19.7214 30.3357 19.6205 30.3357 19.6165 30.3357C19.6125 30.3357 19.5114 30.3357 19.5074 30.3357C19.5034 30.3357 19.4023 30.3357 19.3983 30.3357C19.3942 30.3357 19.2933 30.3357 19.2893 30.3357C19.2853 30.3357 19.1843 30.3357 19.1802 30.3357C19.1761 30.3357 19.0752 30.3357 19.0712 30.3357C19.0671 30.3357 18.9662 30.3357 18.9622 30.3357C18.9581 30.3357 18.8572 30.3357 18.8531 30.3357C18.8491 30.3357 18.7482 30.3357 18.7441 30.3357C18.74 30.3357 18.6392 30.3357 18.6351 30.3357C18.6311 30.3357 18.5302 30.3357 18.5261 30.3357C18.5221 30.3357 18.4211 30.3357 18.4171 30.3357C18.4131 30.3357 18.3123 30.3357 18.3081 30.3357C18.3041 30.3357 18.2031 30.3357 18.1991 30.3357C18.1951 30.3357 18.0941 30.3357 18.0901 30.3357C18.0859 30.3357 17.9851 30.3357 17.981 30.3357C17.9771 30.3357 17.876 30.3357 17.8719 30.3357C17.8679 30.3357 17.767 30.3357 17.7629 30.3357C17.759 30.3357 17.6578 30.3357 17.6539 30.3357C17.6499 30.3357 17.5488 30.3357 17.5448 30.3357C17.5408 30.3357 17.3427 30.3357 17.3387 30.3357L17.4368 32.3376C17.4408 32.3376 17.543 32.3376 17.547 32.3376C17.5511 32.3376 17.6532 32.3376 17.6572 32.3376C17.6613 32.3376 17.7634 32.3376 17.7675 32.3376C17.7714 32.3376 17.8734 32.3376 17.8774 32.3376C17.8816 32.3376 17.9836 32.3376 17.9875 32.3376C17.9916 32.3376 18.0936 32.3376 18.0977 32.3376C18.1017 32.3376 18.2037 32.3376 18.2076 32.3376C18.2117 32.3376 18.3137 32.3376 18.3177 32.3376C18.3218 32.3376 18.4237 32.3376 18.4277 32.3376C18.4318 32.3376 18.5336 32.3376 18.5376 32.3376C18.5417 32.3376 18.6434 32.3376 18.6475 32.3376C18.6515 32.3376 18.7532 32.3376 18.7573 32.3376C18.7614 32.3376 18.863 32.3376 18.8671 32.3376C18.8711 32.3376 18.9728 32.3376 18.9769 32.3376C18.981 32.3376 19.0826 32.3376 19.0867 32.3376C19.0908 32.3376 19.1924 32.3376 19.1964 32.3376C19.2004 32.3376 19.302 32.3376 19.3062 32.3376C19.3101 32.3376 19.4117 32.3376 19.4158 32.3376C19.4198 32.3376 19.5212 32.3376 19.5254 32.3376C19.5295 32.3376 19.631 32.3376 19.635 32.3376C19.639 32.3376 19.7406 32.3376 19.7446 32.3376C19.7487 32.3376 19.8502 32.3376 19.8542 32.3376C19.8583 32.3376 19.9596 32.3376 19.9637 32.3376C19.9677 32.3376 20.0692 32.3376 20.0732 32.3376C20.0771 32.3376 20.1786 32.3376 20.1827 32.3376C20.1868 32.3376 20.2881 32.3376 20.2922 32.3376C20.2961 32.3376 20.3976 32.3376 20.4016 32.3376C20.4056 32.3376 20.507 32.3376 20.5111 32.3376C20.5151 32.3376 20.6165 32.3376 20.6205 32.3376C20.6246 32.3376 20.7257 32.3376 20.7297 32.3376C20.7338 32.3376 20.8352 32.3376 20.8392 32.3376C20.8433 32.3376 20.9445 32.3376 20.9486 32.3376C20.9526 32.3376 21.054 32.3376 21.0579 32.3376C21.062 32.3376 21.1631 32.3376 21.1672 32.3376C21.1713 32.3376 21.2723 32.3376 21.2765 32.3376C21.2805 32.3376 21.3818 32.3376 21.3857 32.3376C21.3898 32.3376 21.491 32.3376 21.495 32.3376C21.4991 32.3376 21.6002 32.3376 21.6042 32.3376C21.6083 32.3376 21.7094 32.3376 21.7135 32.3376C21.7177 32.3376 21.8186 32.3376 21.8228 32.3376C21.8268 32.3376 21.9279 32.3376 21.932 32.3376C21.936 32.3376 22.0371 32.3376 22.0411 32.3376C22.0452 32.3376 22.1462 32.3376 22.1504 32.3376C22.1545 32.3376 22.2555 32.3376 22.2595 32.3376C22.2635 32.3376 22.3646 32.3376 22.3687 32.3376C22.3728 32.3376 22.4738 32.3376 22.4779 32.3376C22.4821 32.3376 22.5829 32.3376 22.587 32.3376C22.5911 32.3376 22.6921 32.3376 22.6962 32.3376C22.7003 32.3376 22.8013 32.3376 22.8053 32.3376C22.8094 32.3376 22.9104 32.3376 22.9146 32.3376C22.9186 32.3376 23.0195 32.3376 23.0236 32.3376C23.0277 32.3376 23.1287 32.3376 23.1328 32.3376C23.1368 32.3376 23.2378 32.3376 23.2419 32.3376C23.246 32.3376 23.3469 32.3376 23.351 32.3376C23.3551 32.3376 23.4561 32.3376 23.4601 32.3376C23.4642 32.3376 23.5652 32.3376 23.5693 32.3376L23.5693 30.3357ZM16.3387 31.3357C16.3387 31.337 16.3387 31.4346 16.3387 31.436C16.3387 31.4373 16.3387 31.5384 16.3387 31.5398C16.3387 31.5411 16.3387 31.6418 16.3387 31.6431C16.3387 31.6444 16.3387 31.7447 16.3387 31.746C16.3387 31.7473 16.3387 31.8472 16.3387 31.8485C16.3387 31.8498 16.3387 31.9494 16.3387 31.9507C16.3387 31.952 16.3387 32.0513 16.3387 32.0526C16.3387 32.0539 16.3387 32.1529 16.3387 32.1542C16.3387 32.1555 16.3387 32.2543 16.3387 32.2556C16.3387 32.2568 16.3387 32.3554 16.3387 32.3567C16.3387 32.358 16.3387 32.4564 16.3387 32.4577C16.3387 32.459 16.3387 32.5573 16.3387 32.5586C16.3387 32.5599 16.3387 32.658 16.3387 32.6593C16.3387 32.6605 16.3387 32.7587 16.3387 32.76C16.3387 32.7613 16.3387 32.8594 16.3387 32.8607C16.3387 32.862 16.3387 32.9601 16.3387 32.9614C16.3387 32.9627 16.3387 33.0608 16.3387 33.0621C16.3387 33.0634 16.3387 33.1616 16.3387 33.1629C16.3387 33.1642 16.3387 33.3363 16.3387 33.3376L18.3387 33.3376C18.3387 33.3363 18.3387 33.2379 18.3387 33.2366C18.3387 33.2353 18.3387 33.137 18.3387 33.1357C18.3387 33.1344 18.3387 33.0362 18.3387 33.0349C18.3387 33.0336 18.3387 32.9355 18.3387 32.9342C18.3387 32.9329 18.3387 32.8349 18.3387 32.8336C18.3387 32.8323 18.3387 32.7342 18.3387 32.7329C18.3387 32.7316 18.3387 32.6335 18.3387 32.6322C18.3387 32.6309 18.3387 32.5327 18.3387 32.5314C18.3387 32.5301 18.4277 32.3389 18.4277 32.3376C18.4277 32.3363 18.3387 32.2374 18.3387 32.2361C18.3387 32.2348 18.3387 32.136 18.3387 32.1347C18.3387 32.1334 18.3387 32.0344 18.3387 32.033C18.3387 32.0317 18.3387 31.9324 18.3387 31.9311C18.3387 31.9298 18.3387 31.8302 18.3387 31.8289C18.3387 31.8276 18.3387 31.7276 18.3387 31.7262C18.3387 31.7249 18.3387 31.6246 18.3387 31.6232C18.3387 31.6219 18.3387 31.5212 18.3387 31.5198C18.3387 31.5184 18.3387 31.4173 18.3387 31.4159L16.3387 31.3357Z" fill="#009FF2" fill-opacity="1.000000" fill-rule="nonzero"/>
				</g>
			</g>
		</g>
	</g>
</svg>
